<svg xmlns="http://www.w3.org/2000/svg" xmlns:xlink="http://www.w3.org/1999/xlink" viewBox="0 0 170.88 146.88"><defs><style>.cls-1{isolation:isolate;}.cls-2{fill:#cae0ff;}.cls-175,.cls-202,.cls-206,.cls-207,.cls-208,.cls-3{opacity:0.5;}.cls-11,.cls-12,.cls-13,.cls-184,.cls-186,.cls-187,.cls-4,.cls-5,.cls-7,.cls-8{opacity:0.8;}.cls-4{fill:url(#linear-gradient);}.cls-5{fill:url(#linear-gradient-2);}.cls-6{opacity:0.3;}.cls-7{fill:url(#linear-gradient-3);}.cls-8{fill:url(#linear-gradient-4);}.cls-9{opacity:0.2;}.cls-10{fill:#5f9fdd;}.cls-11{fill:url(#linear-gradient-5);}.cls-12{fill:url(#linear-gradient-6);}.cls-14,.cls-15,.cls-175{fill:#fff;}.cls-15,.cls-174{opacity:0.6;}.cls-16{fill:url(#linear-gradient-7);}.cls-17{fill:url(#New_Gradient_Swatch_16);}.cls-18{fill:#f0f6fc;}.cls-19,.cls-194{fill:#4a75cb;}.cls-20{fill:#d2e3fc;}.cls-177,.cls-202,.cls-206,.cls-207,.cls-208,.cls-21,.cls-22{mix-blend-mode:multiply;}.cls-21{fill:url(#linear-gradient-8);}.cls-22{fill:url(#linear-gradient-9);}.cls-23{fill:#b1d0ef;}.cls-24{fill:url(#linear-gradient-10);}.cls-25{fill:url(#linear-gradient-11);}.cls-26{fill:url(#linear-gradient-12);}.cls-27{fill:url(#linear-gradient-13);}.cls-28{fill:url(#linear-gradient-14);}.cls-29{fill:url(#linear-gradient-15);}.cls-30{fill:url(#linear-gradient-16);}.cls-31{fill:url(#linear-gradient-17);}.cls-32{fill:url(#linear-gradient-18);}.cls-33{fill:url(#linear-gradient-19);}.cls-34{fill:url(#linear-gradient-20);}.cls-35{fill:url(#linear-gradient-21);}.cls-36{fill:url(#linear-gradient-22);}.cls-37{fill:url(#linear-gradient-23);}.cls-38{fill:url(#linear-gradient-24);}.cls-39{fill:url(#linear-gradient-25);}.cls-40{fill:url(#linear-gradient-26);}.cls-41{fill:url(#linear-gradient-27);}.cls-42{fill:url(#linear-gradient-28);}.cls-43{fill:url(#linear-gradient-29);}.cls-44{fill:url(#linear-gradient-30);}.cls-45{fill:url(#linear-gradient-31);}.cls-46{fill:url(#linear-gradient-32);}.cls-47{fill:url(#linear-gradient-33);}.cls-48{fill:url(#linear-gradient-34);}.cls-49{fill:url(#linear-gradient-35);}.cls-50{fill:url(#linear-gradient-36);}.cls-51{fill:url(#linear-gradient-37);}.cls-52{fill:url(#linear-gradient-38);}.cls-53{fill:url(#linear-gradient-39);}.cls-54{fill:url(#linear-gradient-40);}.cls-55{fill:url(#linear-gradient-41);}.cls-56{fill:url(#linear-gradient-42);}.cls-57{fill:url(#linear-gradient-43);}.cls-58{fill:url(#linear-gradient-44);}.cls-59{fill:url(#linear-gradient-45);}.cls-60{fill:url(#linear-gradient-46);}.cls-61{fill:url(#linear-gradient-47);}.cls-62{fill:url(#linear-gradient-48);}.cls-63{fill:url(#linear-gradient-49);}.cls-64{fill:url(#linear-gradient-50);}.cls-65{fill:url(#linear-gradient-51);}.cls-66{fill:url(#linear-gradient-52);}.cls-67{fill:url(#linear-gradient-53);}.cls-68{fill:url(#linear-gradient-54);}.cls-69{fill:url(#linear-gradient-55);}.cls-70{fill:url(#linear-gradient-56);}.cls-71{fill:url(#linear-gradient-57);}.cls-72{fill:url(#linear-gradient-58);}.cls-73{fill:url(#linear-gradient-59);}.cls-74{fill:url(#linear-gradient-60);}.cls-75{fill:url(#linear-gradient-61);}.cls-76{fill:url(#linear-gradient-62);}.cls-77{fill:url(#linear-gradient-63);}.cls-78{fill:url(#linear-gradient-64);}.cls-79{fill:url(#linear-gradient-65);}.cls-80{fill:url(#linear-gradient-66);}.cls-81{fill:url(#linear-gradient-67);}.cls-82{fill:url(#linear-gradient-68);}.cls-83{fill:url(#linear-gradient-69);}.cls-84{fill:url(#linear-gradient-70);}.cls-85{fill:url(#linear-gradient-71);}.cls-86{fill:url(#linear-gradient-72);}.cls-87{fill:url(#linear-gradient-73);}.cls-88{fill:url(#linear-gradient-74);}.cls-89{fill:url(#linear-gradient-75);}.cls-90{fill:url(#linear-gradient-76);}.cls-91{fill:url(#linear-gradient-77);}.cls-92{fill:url(#linear-gradient-78);}.cls-93{fill:url(#linear-gradient-79);}.cls-94{fill:url(#linear-gradient-80);}.cls-95{fill:url(#linear-gradient-81);}.cls-96{fill:url(#linear-gradient-82);}.cls-97{fill:url(#linear-gradient-83);}.cls-98{fill:url(#linear-gradient-84);}.cls-99{fill:url(#linear-gradient-85);}.cls-100{fill:url(#linear-gradient-86);}.cls-101{fill:url(#linear-gradient-87);}.cls-102{fill:url(#linear-gradient-88);}.cls-103{fill:url(#linear-gradient-89);}.cls-104{fill:url(#linear-gradient-90);}.cls-105{fill:url(#linear-gradient-91);}.cls-106{fill:url(#linear-gradient-92);}.cls-107{fill:url(#linear-gradient-93);}.cls-108{fill:url(#linear-gradient-94);}.cls-109{fill:url(#linear-gradient-95);}.cls-110{fill:url(#linear-gradient-96);}.cls-111{fill:url(#linear-gradient-97);}.cls-112{fill:url(#linear-gradient-98);}.cls-113{fill:url(#linear-gradient-99);}.cls-114{fill:url(#linear-gradient-100);}.cls-115{fill:url(#linear-gradient-101);}.cls-116{fill:url(#linear-gradient-102);}.cls-117{fill:url(#linear-gradient-103);}.cls-118{fill:url(#linear-gradient-104);}.cls-119{fill:url(#linear-gradient-105);}.cls-120{fill:url(#linear-gradient-106);}.cls-121{fill:url(#linear-gradient-107);}.cls-122{fill:url(#linear-gradient-108);}.cls-123{fill:url(#linear-gradient-109);}.cls-124{fill:url(#linear-gradient-110);}.cls-125{fill:url(#linear-gradient-111);}.cls-126{fill:url(#linear-gradient-112);}.cls-127{fill:url(#linear-gradient-113);}.cls-128{fill:url(#linear-gradient-114);}.cls-129{fill:url(#linear-gradient-115);}.cls-130{fill:url(#linear-gradient-116);}.cls-131{fill:url(#linear-gradient-117);}.cls-132{fill:url(#linear-gradient-118);}.cls-133{fill:url(#linear-gradient-119);}.cls-134{fill:url(#linear-gradient-120);}.cls-135{fill:url(#linear-gradient-121);}.cls-136{fill:url(#linear-gradient-122);}.cls-137{fill:url(#linear-gradient-123);}.cls-138{fill:url(#linear-gradient-124);}.cls-139{fill:url(#linear-gradient-125);}.cls-140{fill:url(#linear-gradient-126);}.cls-141{fill:url(#linear-gradient-127);}.cls-142{fill:url(#linear-gradient-128);}.cls-143{fill:url(#linear-gradient-129);}.cls-144{fill:url(#linear-gradient-130);}.cls-145{fill:url(#linear-gradient-131);}.cls-146{fill:url(#linear-gradient-132);}.cls-147{fill:url(#linear-gradient-133);}.cls-148{fill:url(#linear-gradient-134);}.cls-149{fill:url(#linear-gradient-135);}.cls-150{fill:url(#linear-gradient-136);}.cls-151{fill:url(#linear-gradient-137);}.cls-152{fill:url(#linear-gradient-138);}.cls-153{fill:url(#linear-gradient-139);}.cls-154{fill:url(#linear-gradient-140);}.cls-155{fill:url(#linear-gradient-141);}.cls-156{fill:url(#linear-gradient-142);}.cls-157{fill:url(#linear-gradient-143);}.cls-158{fill:url(#linear-gradient-144);}.cls-159{fill:url(#linear-gradient-145);}.cls-160{fill:url(#linear-gradient-146);}.cls-161{fill:url(#linear-gradient-147);}.cls-162{fill:url(#linear-gradient-148);}.cls-163{fill:url(#linear-gradient-149);}.cls-164{fill:url(#linear-gradient-150);}.cls-165{fill:url(#linear-gradient-151);}.cls-166{fill:url(#linear-gradient-152);}.cls-167{fill:#1c468a;}.cls-168{fill:#89b0f7;}.cls-169{opacity:0.28;fill:url(#linear-gradient-153);}.cls-170{fill:#d0dcfe;}.cls-171,.cls-196{fill:#272c91;}.cls-172{fill:url(#linear-gradient-154);}.cls-173{fill:#e4edf9;}.cls-176{fill:url(#linear-gradient-155);}.cls-177{fill:url(#linear-gradient-156);}.cls-178{fill:url(#linear-gradient-157);}.cls-179{fill:#f0f9ff;}.cls-180{fill:#699dee;}.cls-181{fill:#afcdfb;}.cls-182{fill:url(#linear-gradient-158);}.cls-183{fill:url(#linear-gradient-159);}.cls-184{mix-blend-mode:screen;fill:url(#linear-gradient-160);}.cls-185{fill:url(#linear-gradient-161);}.cls-186{fill:url(#linear-gradient-162);}.cls-187{fill:url(#linear-gradient-163);}.cls-188{opacity:0.6;}.cls-189{fill:#78acea;}.cls-190,.cls-194{opacity:0.58;}.cls-191{fill:#a4c4ea;}.cls-192{fill:#f99746;}.cls-193{fill:none;stroke:#163560;stroke-miterlimit:10;stroke-width:0.25px;}.cls-195{fill:#f1a34f;}.cls-196{mix-blend-mode:soft-light;}.cls-197{fill:#163560;}.cls-198{fill:#fafdff;}.cls-199{fill:#080749;}.cls-200{fill:#1b1089;}.cls-201{fill:#f1bf9c;}.cls-202{fill:url(#linear-gradient-164);}.cls-203{fill:#f4ccb0;}.cls-204{fill:#301da0;}.cls-205{fill:#739af0;}.cls-206{fill:url(#linear-gradient-165);}.cls-207{fill:url(#linear-gradient-166);}.cls-208{fill:url(#linear-gradient-167);}</style><linearGradient id="linear-gradient" x1="55.03" y1="42.33" x2="70.59" y2="14.9" gradientUnits="userSpaceOnUse"><stop offset="0" stop-color="#699dee"/><stop offset="0.2" stop-color="#6da0ee" stop-opacity="0.98"/><stop offset="0.39" stop-color="#7ba8f0" stop-opacity="0.93"/><stop offset="0.57" stop-color="#92b6f2" stop-opacity="0.85"/><stop offset="0.75" stop-color="#b2c9f6" stop-opacity="0.73"/><stop offset="0.92" stop-color="#dae2fa" stop-opacity="0.58"/><stop offset="1" stop-color="#efeefc" stop-opacity="0.5"/></linearGradient><linearGradient id="linear-gradient-2" x1="54.83" y1="42.21" x2="70.21" y2="15.11" xlink:href="#linear-gradient"/><linearGradient id="linear-gradient-3" x1="139.68" y1="71.81" x2="158.1" y2="39.32" xlink:href="#linear-gradient"/><linearGradient id="linear-gradient-4" x1="139.45" y1="71.67" x2="157.66" y2="39.57" xlink:href="#linear-gradient"/><linearGradient id="linear-gradient-5" x1="149.75" y1="93.05" x2="159.56" y2="75.76" xlink:href="#linear-gradient"/><linearGradient id="linear-gradient-6" x1="149.63" y1="92.98" x2="159.33" y2="75.89" xlink:href="#linear-gradient"/><linearGradient id="linear-gradient-7" x1="74.13" y1="55.67" x2="146.89" y2="55.67" gradientUnits="userSpaceOnUse"><stop offset="0" stop-color="#bfe0f2"/><stop offset="1" stop-color="#91cbeb"/></linearGradient><linearGradient id="New_Gradient_Swatch_16" x1="74.13" y1="55.82" x2="145.52" y2="55.82" gradientUnits="userSpaceOnUse"><stop offset="0" stop-color="#384b57"/><stop offset="1" stop-color="#0b0a0c"/></linearGradient><linearGradient id="linear-gradient-8" x1="22.73" y1="100.61" x2="84.23" y2="108.53" gradientUnits="userSpaceOnUse"><stop offset="0" stop-color="#efeefc"/><stop offset="0.12" stop-color="#e5e4fa"/><stop offset="0.4" stop-color="#d2d2f7"/><stop offset="0.69" stop-color="#c7c7f6"/><stop offset="1" stop-color="#c3c3f5"/></linearGradient><linearGradient id="linear-gradient-9" x1="22.78" y1="100.74" x2="84.21" y2="108.65" xlink:href="#linear-gradient-8"/><linearGradient id="linear-gradient-10" x1="87.65" y1="85.83" x2="93.84" y2="85.83" gradientUnits="userSpaceOnUse"><stop offset="0" stop-color="#27263f"/><stop offset="0.52" stop-color="#1a1927"/><stop offset="1" stop-color="#0b0a0c"/></linearGradient><linearGradient id="linear-gradient-11" x1="91.32" y1="88.08" x2="97.51" y2="88.08" xlink:href="#linear-gradient-10"/><linearGradient id="linear-gradient-12" x1="94.98" y1="90.34" x2="101.17" y2="90.34" xlink:href="#linear-gradient-10"/><linearGradient id="linear-gradient-13" x1="98.64" y1="92.59" x2="104.83" y2="92.59" xlink:href="#linear-gradient-10"/><linearGradient id="linear-gradient-14" x1="113.22" y1="102.15" x2="121.13" y2="102.15" xlink:href="#linear-gradient-10"/><linearGradient id="linear-gradient-15" x1="85.38" y1="89.29" x2="91.57" y2="89.29" xlink:href="#linear-gradient-10"/><linearGradient id="linear-gradient-16" x1="89.05" y1="91.54" x2="95.24" y2="91.54" xlink:href="#linear-gradient-10"/><linearGradient id="linear-gradient-17" x1="92.71" y1="93.79" x2="98.9" y2="93.79" xlink:href="#linear-gradient-10"/><linearGradient id="linear-gradient-18" x1="111.03" y1="105.05" x2="117.22" y2="105.05" xlink:href="#linear-gradient-10"/><linearGradient id="linear-gradient-19" x1="78.56" y1="76.05" x2="83.11" y2="76.05" xlink:href="#linear-gradient-10"/><linearGradient id="linear-gradient-20" x1="82.23" y1="78.3" x2="86.77" y2="78.3" xlink:href="#linear-gradient-10"/><linearGradient id="linear-gradient-21" x1="85.89" y1="80.56" x2="90.44" y2="80.56" xlink:href="#linear-gradient-10"/><linearGradient id="linear-gradient-22" x1="89.55" y1="82.81" x2="94.1" y2="82.81" xlink:href="#linear-gradient-10"/><linearGradient id="linear-gradient-23" x1="93.22" y1="85.06" x2="97.76" y2="85.06" xlink:href="#linear-gradient-10"/><linearGradient id="linear-gradient-24" x1="96.88" y1="87.31" x2="101.43" y2="87.31" xlink:href="#linear-gradient-10"/><linearGradient id="linear-gradient-25" x1="100.54" y1="89.56" x2="105.09" y2="89.56" xlink:href="#linear-gradient-10"/><linearGradient id="linear-gradient-26" x1="104.21" y1="91.82" x2="108.75" y2="91.82" xlink:href="#linear-gradient-10"/><linearGradient id="linear-gradient-27" x1="107.87" y1="94.07" x2="112.42" y2="94.07" xlink:href="#linear-gradient-10"/><linearGradient id="linear-gradient-28" x1="111.53" y1="96.32" x2="116.08" y2="96.32" xlink:href="#linear-gradient-10"/><linearGradient id="linear-gradient-29" x1="115.2" y1="98.57" x2="119.74" y2="98.57" xlink:href="#linear-gradient-10"/><linearGradient id="linear-gradient-30" x1="118.86" y1="100.82" x2="123.41" y2="100.82" xlink:href="#linear-gradient-10"/><linearGradient id="linear-gradient-31" x1="104.59" y1="106.72" x2="113.48" y2="106.72" xlink:href="#linear-gradient-10"/><linearGradient id="linear-gradient-32" x1="98.8" y1="108.55" x2="109.61" y2="108.55" xlink:href="#linear-gradient-10"/><linearGradient id="linear-gradient-33" x1="99.57" y1="112.43" x2="105.76" y2="112.43" xlink:href="#linear-gradient-10"/><linearGradient id="linear-gradient-34" x1="95.12" y1="104.77" x2="101.31" y2="104.77" xlink:href="#linear-gradient-10"/><linearGradient id="linear-gradient-35" x1="57.82" y1="83.17" x2="68.3" y2="83.17" xlink:href="#linear-gradient-10"/><linearGradient id="linear-gradient-36" x1="70.36" y1="98.89" x2="91.03" y2="98.89" xlink:href="#linear-gradient-10"/><linearGradient id="linear-gradient-37" x1="64.89" y1="91.61" x2="72.8" y2="91.61" xlink:href="#linear-gradient-10"/><linearGradient id="linear-gradient-38" x1="53.98" y1="84.31" x2="60.17" y2="84.31" xlink:href="#linear-gradient-10"/><linearGradient id="linear-gradient-39" x1="57.64" y1="86.56" x2="63.83" y2="86.56" xlink:href="#linear-gradient-10"/><linearGradient id="linear-gradient-40" x1="61.3" y1="88.81" x2="67.49" y2="88.81" xlink:href="#linear-gradient-10"/><linearGradient id="linear-gradient-41" x1="95.91" y1="110.18" x2="102.1" y2="110.18" xlink:href="#linear-gradient-10"/><linearGradient id="linear-gradient-42" x1="88.58" y1="105.67" x2="94.77" y2="105.67" xlink:href="#linear-gradient-10"/><linearGradient id="linear-gradient-43" x1="92.25" y1="107.92" x2="98.44" y2="107.92" xlink:href="#linear-gradient-10"/><linearGradient id="linear-gradient-44" x1="69.34" y1="74.57" x2="75.53" y2="74.57" xlink:href="#linear-gradient-10"/><linearGradient id="linear-gradient-45" x1="73" y1="76.82" x2="79.19" y2="76.82" xlink:href="#linear-gradient-10"/><linearGradient id="linear-gradient-46" x1="76.66" y1="79.08" x2="82.85" y2="79.08" xlink:href="#linear-gradient-10"/><linearGradient id="linear-gradient-47" x1="80.33" y1="81.33" x2="86.52" y2="81.33" xlink:href="#linear-gradient-10"/><linearGradient id="linear-gradient-48" x1="83.99" y1="83.58" x2="90.18" y2="83.58" xlink:href="#linear-gradient-10"/><linearGradient id="linear-gradient-49" x1="102.31" y1="94.84" x2="108.5" y2="94.84" xlink:href="#linear-gradient-10"/><linearGradient id="linear-gradient-50" x1="105.97" y1="97.09" x2="112.16" y2="97.09" xlink:href="#linear-gradient-10"/><linearGradient id="linear-gradient-51" x1="109.63" y1="99.34" x2="115.82" y2="99.34" xlink:href="#linear-gradient-10"/><linearGradient id="linear-gradient-52" x1="70.73" y1="80.28" x2="76.92" y2="80.28" xlink:href="#linear-gradient-10"/><linearGradient id="linear-gradient-53" x1="74.39" y1="82.53" x2="80.58" y2="82.53" xlink:href="#linear-gradient-10"/><linearGradient id="linear-gradient-54" x1="78.06" y1="84.79" x2="84.25" y2="84.79" xlink:href="#linear-gradient-10"/><linearGradient id="linear-gradient-55" x1="81.72" y1="87.04" x2="87.91" y2="87.04" xlink:href="#linear-gradient-10"/><linearGradient id="linear-gradient-56" x1="96.37" y1="96.04" x2="102.56" y2="96.04" xlink:href="#linear-gradient-10"/><linearGradient id="linear-gradient-57" x1="100.04" y1="98.3" x2="106.23" y2="98.3" xlink:href="#linear-gradient-10"/><linearGradient id="linear-gradient-58" x1="103.7" y1="100.55" x2="109.89" y2="100.55" xlink:href="#linear-gradient-10"/><linearGradient id="linear-gradient-59" x1="107.36" y1="102.8" x2="113.55" y2="102.8" xlink:href="#linear-gradient-10"/><linearGradient id="linear-gradient-60" x1="65.32" y1="77.44" x2="73.23" y2="77.44" xlink:href="#linear-gradient-10"/><linearGradient id="linear-gradient-61" x1="73.16" y1="73.21" x2="79.42" y2="73.21" xlink:href="#linear-gradient-10"/><linearGradient id="linear-gradient-62" x1="68" y1="83.31" x2="74.19" y2="83.31" xlink:href="#linear-gradient-10"/><linearGradient id="linear-gradient-63" x1="71.67" y1="85.56" x2="77.86" y2="85.56" xlink:href="#linear-gradient-10"/><linearGradient id="linear-gradient-64" x1="75.33" y1="87.82" x2="81.52" y2="87.82" xlink:href="#linear-gradient-10"/><linearGradient id="linear-gradient-65" x1="78.99" y1="90.07" x2="85.18" y2="90.07" xlink:href="#linear-gradient-10"/><linearGradient id="linear-gradient-66" x1="82.66" y1="92.32" x2="88.85" y2="92.32" xlink:href="#linear-gradient-10"/><linearGradient id="linear-gradient-67" x1="86.32" y1="94.57" x2="92.51" y2="94.57" xlink:href="#linear-gradient-10"/><linearGradient id="linear-gradient-68" x1="89.98" y1="96.82" x2="96.17" y2="96.82" xlink:href="#linear-gradient-10"/><linearGradient id="linear-gradient-69" x1="93.65" y1="99.08" x2="99.84" y2="99.08" xlink:href="#linear-gradient-10"/><linearGradient id="linear-gradient-70" x1="97.31" y1="101.33" x2="103.5" y2="101.33" xlink:href="#linear-gradient-10"/><linearGradient id="linear-gradient-71" x1="100.97" y1="103.58" x2="107.16" y2="103.58" xlink:href="#linear-gradient-10"/><linearGradient id="linear-gradient-72" x1="61.69" y1="80.23" x2="70.52" y2="80.23" xlink:href="#linear-gradient-10"/><linearGradient id="linear-gradient-73" x1="65.81" y1="86.75" x2="72" y2="86.75" xlink:href="#linear-gradient-10"/><linearGradient id="linear-gradient-74" x1="69.47" y1="89" x2="75.67" y2="89" xlink:href="#linear-gradient-10"/><linearGradient id="linear-gradient-75" x1="73.14" y1="91.26" x2="79.33" y2="91.26" xlink:href="#linear-gradient-10"/><linearGradient id="linear-gradient-76" x1="76.8" y1="93.51" x2="82.99" y2="93.51" xlink:href="#linear-gradient-10"/><linearGradient id="linear-gradient-77" x1="80.46" y1="95.76" x2="86.66" y2="95.76" xlink:href="#linear-gradient-10"/><linearGradient id="linear-gradient-78" x1="84.13" y1="98.01" x2="90.32" y2="98.01" xlink:href="#linear-gradient-10"/><linearGradient id="linear-gradient-79" x1="87.79" y1="100.26" x2="93.98" y2="100.26" xlink:href="#linear-gradient-10"/><linearGradient id="linear-gradient-80" x1="91.45" y1="102.52" x2="97.65" y2="102.52" xlink:href="#linear-gradient-10"/><linearGradient id="linear-gradient-81" x1="69.34" y1="74.39" x2="75.53" y2="74.39" gradientUnits="userSpaceOnUse"><stop offset="0" stop-color="#54636d"/><stop offset="1" stop-color="#22272b"/></linearGradient><linearGradient id="linear-gradient-82" x1="73" y1="76.64" x2="79.19" y2="76.64" xlink:href="#linear-gradient-81"/><linearGradient id="linear-gradient-83" x1="76.66" y1="78.89" x2="82.85" y2="78.89" xlink:href="#linear-gradient-81"/><linearGradient id="linear-gradient-84" x1="80.33" y1="81.15" x2="86.52" y2="81.15" xlink:href="#linear-gradient-81"/><linearGradient id="linear-gradient-85" x1="83.99" y1="83.4" x2="90.18" y2="83.4" xlink:href="#linear-gradient-81"/><linearGradient id="linear-gradient-86" x1="87.65" y1="85.65" x2="93.84" y2="85.65" xlink:href="#linear-gradient-81"/><linearGradient id="linear-gradient-87" x1="91.32" y1="87.9" x2="97.51" y2="87.9" xlink:href="#linear-gradient-81"/><linearGradient id="linear-gradient-88" x1="94.98" y1="90.15" x2="101.17" y2="90.15" xlink:href="#linear-gradient-81"/><linearGradient id="linear-gradient-89" x1="98.64" y1="92.41" x2="104.83" y2="92.41" xlink:href="#linear-gradient-81"/><linearGradient id="linear-gradient-90" x1="102.31" y1="94.66" x2="108.5" y2="94.66" xlink:href="#linear-gradient-81"/><linearGradient id="linear-gradient-91" x1="105.97" y1="96.91" x2="112.16" y2="96.91" xlink:href="#linear-gradient-81"/><linearGradient id="linear-gradient-92" x1="109.63" y1="99.16" x2="115.82" y2="99.16" xlink:href="#linear-gradient-81"/><linearGradient id="linear-gradient-93" x1="113.22" y1="101.97" x2="121.13" y2="101.97" xlink:href="#linear-gradient-81"/><linearGradient id="linear-gradient-94" x1="70.73" y1="80.1" x2="76.92" y2="80.1" xlink:href="#linear-gradient-81"/><linearGradient id="linear-gradient-95" x1="74.39" y1="82.35" x2="80.58" y2="82.35" xlink:href="#linear-gradient-81"/><linearGradient id="linear-gradient-96" x1="78.06" y1="84.6" x2="84.25" y2="84.6" xlink:href="#linear-gradient-81"/><linearGradient id="linear-gradient-97" x1="81.72" y1="86.86" x2="87.91" y2="86.86" xlink:href="#linear-gradient-81"/><linearGradient id="linear-gradient-98" x1="85.38" y1="89.11" x2="91.57" y2="89.11" xlink:href="#linear-gradient-81"/><linearGradient id="linear-gradient-99" x1="89.05" y1="91.36" x2="95.24" y2="91.36" xlink:href="#linear-gradient-81"/><linearGradient id="linear-gradient-100" x1="92.71" y1="93.61" x2="98.9" y2="93.61" xlink:href="#linear-gradient-81"/><linearGradient id="linear-gradient-101" x1="96.37" y1="95.86" x2="102.56" y2="95.86" xlink:href="#linear-gradient-81"/><linearGradient id="linear-gradient-102" x1="100.04" y1="98.12" x2="106.23" y2="98.12" xlink:href="#linear-gradient-81"/><linearGradient id="linear-gradient-103" x1="103.7" y1="100.37" x2="109.89" y2="100.37" xlink:href="#linear-gradient-81"/><linearGradient id="linear-gradient-104" x1="107.36" y1="102.62" x2="113.55" y2="102.62" xlink:href="#linear-gradient-81"/><linearGradient id="linear-gradient-105" x1="111.03" y1="104.87" x2="117.22" y2="104.87" xlink:href="#linear-gradient-81"/><linearGradient id="linear-gradient-106" x1="65.32" y1="77.25" x2="73.23" y2="77.25" xlink:href="#linear-gradient-81"/><linearGradient id="linear-gradient-107" x1="78.56" y1="75.87" x2="83.11" y2="75.87" xlink:href="#linear-gradient-81"/><linearGradient id="linear-gradient-108" x1="82.23" y1="78.12" x2="86.77" y2="78.12" xlink:href="#linear-gradient-81"/><linearGradient id="linear-gradient-109" x1="85.89" y1="80.38" x2="90.44" y2="80.38" xlink:href="#linear-gradient-81"/><linearGradient id="linear-gradient-110" x1="89.55" y1="82.63" x2="94.1" y2="82.63" xlink:href="#linear-gradient-81"/><linearGradient id="linear-gradient-111" x1="93.22" y1="84.88" x2="97.76" y2="84.88" xlink:href="#linear-gradient-81"/><linearGradient id="linear-gradient-112" x1="96.88" y1="87.13" x2="101.43" y2="87.13" xlink:href="#linear-gradient-81"/><linearGradient id="linear-gradient-113" x1="100.54" y1="89.38" x2="105.09" y2="89.38" xlink:href="#linear-gradient-81"/><linearGradient id="linear-gradient-114" x1="104.21" y1="91.63" x2="108.75" y2="91.63" xlink:href="#linear-gradient-81"/><linearGradient id="linear-gradient-115" x1="107.87" y1="93.89" x2="112.42" y2="93.89" xlink:href="#linear-gradient-81"/><linearGradient id="linear-gradient-116" x1="111.53" y1="96.14" x2="116.08" y2="96.14" xlink:href="#linear-gradient-81"/><linearGradient id="linear-gradient-117" x1="115.2" y1="98.39" x2="119.74" y2="98.39" xlink:href="#linear-gradient-81"/><linearGradient id="linear-gradient-118" x1="118.86" y1="100.64" x2="123.41" y2="100.64" xlink:href="#linear-gradient-81"/><linearGradient id="linear-gradient-119" x1="73.16" y1="73.03" x2="79.42" y2="73.03" xlink:href="#linear-gradient-81"/><linearGradient id="linear-gradient-120" x1="68" y1="83.13" x2="74.19" y2="83.13" xlink:href="#linear-gradient-81"/><linearGradient id="linear-gradient-121" x1="71.67" y1="85.38" x2="77.86" y2="85.38" xlink:href="#linear-gradient-81"/><linearGradient id="linear-gradient-122" x1="75.33" y1="87.63" x2="81.52" y2="87.63" xlink:href="#linear-gradient-81"/><linearGradient id="linear-gradient-123" x1="78.99" y1="89.89" x2="85.18" y2="89.89" xlink:href="#linear-gradient-81"/><linearGradient id="linear-gradient-124" x1="82.66" y1="92.14" x2="88.85" y2="92.14" xlink:href="#linear-gradient-81"/><linearGradient id="linear-gradient-125" x1="86.32" y1="94.39" x2="92.51" y2="94.39" xlink:href="#linear-gradient-81"/><linearGradient id="linear-gradient-126" x1="89.98" y1="96.64" x2="96.17" y2="96.64" xlink:href="#linear-gradient-81"/><linearGradient id="linear-gradient-127" x1="93.65" y1="98.89" x2="99.84" y2="98.89" xlink:href="#linear-gradient-81"/><linearGradient id="linear-gradient-128" x1="97.31" y1="101.15" x2="103.5" y2="101.15" xlink:href="#linear-gradient-81"/><linearGradient id="linear-gradient-129" x1="100.97" y1="103.4" x2="107.16" y2="103.4" xlink:href="#linear-gradient-81"/><linearGradient id="linear-gradient-130" x1="61.69" y1="80.05" x2="70.52" y2="80.05" xlink:href="#linear-gradient-81"/><linearGradient id="linear-gradient-131" x1="104.59" y1="106.54" x2="113.48" y2="106.54" xlink:href="#linear-gradient-81"/><linearGradient id="linear-gradient-132" x1="65.81" y1="86.57" x2="72" y2="86.57" xlink:href="#linear-gradient-81"/><linearGradient id="linear-gradient-133" x1="69.47" y1="88.82" x2="75.67" y2="88.82" xlink:href="#linear-gradient-81"/><linearGradient id="linear-gradient-134" x1="73.14" y1="91.07" x2="79.33" y2="91.07" xlink:href="#linear-gradient-81"/><linearGradient id="linear-gradient-135" x1="76.8" y1="93.33" x2="82.99" y2="93.33" xlink:href="#linear-gradient-81"/><linearGradient id="linear-gradient-136" x1="80.46" y1="95.58" x2="86.66" y2="95.58" xlink:href="#linear-gradient-81"/><linearGradient id="linear-gradient-137" x1="84.13" y1="97.83" x2="90.32" y2="97.83" xlink:href="#linear-gradient-81"/><linearGradient id="linear-gradient-138" x1="87.79" y1="100.08" x2="93.98" y2="100.08" xlink:href="#linear-gradient-81"/><linearGradient id="linear-gradient-139" x1="91.45" y1="102.33" x2="97.65" y2="102.33" xlink:href="#linear-gradient-81"/><linearGradient id="linear-gradient-140" x1="95.12" y1="104.59" x2="101.31" y2="104.59" xlink:href="#linear-gradient-81"/><linearGradient id="linear-gradient-141" x1="57.82" y1="82.99" x2="68.3" y2="82.99" xlink:href="#linear-gradient-81"/><linearGradient id="linear-gradient-142" x1="98.8" y1="108.37" x2="109.61" y2="108.37" xlink:href="#linear-gradient-81"/><linearGradient id="linear-gradient-143" x1="64.89" y1="91.43" x2="72.8" y2="91.43" xlink:href="#linear-gradient-81"/><linearGradient id="linear-gradient-144" x1="53.98" y1="84.13" x2="60.17" y2="84.13" xlink:href="#linear-gradient-81"/><linearGradient id="linear-gradient-145" x1="57.64" y1="86.38" x2="63.83" y2="86.38" xlink:href="#linear-gradient-81"/><linearGradient id="linear-gradient-146" x1="61.3" y1="88.63" x2="67.49" y2="88.63" xlink:href="#linear-gradient-81"/><linearGradient id="linear-gradient-147" x1="88.58" y1="105.49" x2="94.77" y2="105.49" xlink:href="#linear-gradient-81"/><linearGradient id="linear-gradient-148" x1="92.25" y1="107.74" x2="98.44" y2="107.74" xlink:href="#linear-gradient-81"/><linearGradient id="linear-gradient-149" x1="99.57" y1="112.25" x2="105.76" y2="112.25" xlink:href="#linear-gradient-81"/><linearGradient id="linear-gradient-150" x1="97.65" y1="109.45" x2="102.1" y2="109.45" xlink:href="#linear-gradient-81"/><linearGradient id="linear-gradient-151" x1="95.91" y1="110.54" x2="100.36" y2="110.54" xlink:href="#linear-gradient-81"/><linearGradient id="linear-gradient-152" x1="70.36" y1="98.71" x2="91.03" y2="98.71" xlink:href="#linear-gradient-81"/><linearGradient id="linear-gradient-153" x1="116.57" y1="114.5" x2="117.34" y2="114.5" gradientUnits="userSpaceOnUse"><stop offset="0" stop-color="#9493e3"/><stop offset="0.06" stop-color="#8887d9"/><stop offset="0.24" stop-color="#6665bf"/><stop offset="0.42" stop-color="#4b4aaa"/><stop offset="0.61" stop-color="#38379c"/><stop offset="0.8" stop-color="#2d2c93"/><stop offset="1" stop-color="#292890"/></linearGradient><linearGradient id="linear-gradient-154" x1="135.44" y1="114.11" x2="117.78" y2="114.11" xlink:href="#linear-gradient-153"/><linearGradient id="linear-gradient-155" x1="1.56" y1="65.72" x2="55.35" y2="65.72" xlink:href="#linear-gradient-7"/><linearGradient id="linear-gradient-156" x1="17.21" y1="69.81" x2="54.61" y2="69.81" xlink:href="#linear-gradient-8"/><linearGradient id="linear-gradient-157" x1="17.21" y1="69.42" x2="54.61" y2="69.42" xlink:href="#linear-gradient-8"/><linearGradient id="linear-gradient-158" x1="34.7" y1="77.2" x2="57.29" y2="77.2" gradientTransform="matrix(0.98, -0.01, 0.02, 1.02, -1.09, -0.37)" gradientUnits="userSpaceOnUse"><stop offset="0" stop-color="#7759e5"/><stop offset="0.11" stop-color="#6653df"/><stop offset="0.32" stop-color="#4b49d7"/><stop offset="0.54" stop-color="#3842d1"/><stop offset="0.76" stop-color="#2d3ecd"/><stop offset="1" stop-color="#293dcc"/></linearGradient><linearGradient id="linear-gradient-159" x1="36.36" y1="83.06" x2="40.8" y2="83.06" gradientUnits="userSpaceOnUse"><stop offset="0" stop-color="#e71de3"/><stop offset="0.01" stop-color="#e31de1"/><stop offset="0.14" stop-color="#b220cc"/><stop offset="0.28" stop-color="#8822ba"/><stop offset="0.42" stop-color="#6624ab"/><stop offset="0.56" stop-color="#4b269f"/><stop offset="0.7" stop-color="#382797"/><stop offset="0.84" stop-color="#2d2892"/><stop offset="1" stop-color="#292890"/></linearGradient><linearGradient id="linear-gradient-160" x1="34.7" y1="76.54" x2="56.96" y2="76.54" gradientTransform="matrix(0.98, -0.01, 0.02, 1.02, -1.09, -0.37)" gradientUnits="userSpaceOnUse"><stop offset="0" stop-color="#cecbff"/><stop offset="0.06" stop-color="#c3bffa"/><stop offset="0.24" stop-color="#a49dec"/><stop offset="0.42" stop-color="#8d82e0"/><stop offset="0.61" stop-color="#7c6fd8"/><stop offset="0.8" stop-color="#7164d4"/><stop offset="1" stop-color="#6e60d2"/></linearGradient><linearGradient id="linear-gradient-161" x1="28.68" y1="84.11" x2="35.42" y2="84.07" gradientUnits="userSpaceOnUse"><stop offset="0" stop-color="#792890"/><stop offset="0.2" stop-color="#7d2893"/><stop offset="0.39" stop-color="#88269b"/><stop offset="0.57" stop-color="#9b25aa"/><stop offset="0.75" stop-color="#b622be"/><stop offset="0.93" stop-color="#d81fd7"/><stop offset="1" stop-color="#e71de3"/></linearGradient><linearGradient id="linear-gradient-162" x1="96.84" y1="71.54" x2="125.33" y2="21.31" gradientUnits="userSpaceOnUse"><stop offset="0" stop-color="#cae0ff"/><stop offset="0.19" stop-color="#cbe0ff" stop-opacity="0.99"/><stop offset="0.36" stop-color="#cee2ff" stop-opacity="0.94"/><stop offset="0.53" stop-color="#d4e4fe" stop-opacity="0.87"/><stop offset="0.7" stop-color="#dbe7fe" stop-opacity="0.76"/><stop offset="0.86" stop-color="#e5eafd" stop-opacity="0.63"/><stop offset="1" stop-color="#efeefc" stop-opacity="0.5"/></linearGradient><linearGradient id="linear-gradient-163" x1="96.49" y1="71.32" x2="124.64" y2="21.69" xlink:href="#linear-gradient-162"/><linearGradient id="linear-gradient-164" x1="32.29" y1="90.44" x2="49.88" y2="90.44" gradientUnits="userSpaceOnUse"><stop offset="0" stop-color="#292890"/><stop offset="0.16" stop-color="#2d2892"/><stop offset="0.3" stop-color="#382797"/><stop offset="0.44" stop-color="#4b269f"/><stop offset="0.58" stop-color="#6624ab"/><stop offset="0.72" stop-color="#8822ba"/><stop offset="0.86" stop-color="#b220cc"/><stop offset="0.99" stop-color="#e31de1"/><stop offset="1" stop-color="#e71de3"/></linearGradient><linearGradient id="linear-gradient-165" x1="47.29" y1="76.96" x2="47.29" y2="83.42" xlink:href="#linear-gradient-164"/><linearGradient id="linear-gradient-166" x1="37.09" y1="109.75" x2="37.09" y2="134.7" xlink:href="#linear-gradient-164"/><linearGradient id="linear-gradient-167" x1="38.75" y1="62.14" x2="43.74" y2="62.14" xlink:href="#linear-gradient-164"/></defs><g class="cls-1"><g id="Layer_1" data-name="Layer 1"><path class="cls-2" d="M88,19.35l-9-5.66a.24.24,0,0,1-.11-.23L80.62,2.83A.22.22,0,0,1,81,2.68l9,5.66a.21.21,0,0,1,.1.23L88.32,19.2A.23.23,0,0,1,88,19.35Z"/><path class="cls-2" d="M167.91,79l-6-3.77a.14.14,0,0,1-.06-.15L163,68.06a.15.15,0,0,1,.23-.1l6,3.76a.17.17,0,0,1,.07.15l-1.18,7.06A.16.16,0,0,1,167.91,79Z"/><path class="cls-2" d="M134.29,32.68l-6-3.76a.15.15,0,0,1-.07-.15l1.18-7.06a.14.14,0,0,1,.22-.1l6,3.76a.13.13,0,0,1,.07.15l-1.17,7.06A.15.15,0,0,1,134.29,32.68Z"/><g class="cls-3"><path class="cls-4" d="M74.58,17.64,57.69,7.05a.42.42,0,0,0-.34,0h0l-.47.08h0a.42.42,0,0,0-.4.35L51.35,38.27a.43.43,0,0,0,.19.43L68.43,49.29a.41.41,0,0,0,.28.06h0l.59-.11h0a.42.42,0,0,0,.33-.34l5.12-30.84A.4.4,0,0,0,74.58,17.64Z"/><path class="cls-5" d="M68.43,49.29,51.54,38.7a.43.43,0,0,1-.19-.43L56.48,7.43a.42.42,0,0,1,.64-.29L74,17.74a.42.42,0,0,1,.19.42L69.07,49A.42.42,0,0,1,68.43,49.29Z"/></g><g class="cls-6"><path class="cls-7" d="M162.83,42.56,142.83,30a.48.48,0,0,0-.4-.05h0l-.56.1h0a.49.49,0,0,0-.48.41L135.32,67a.52.52,0,0,0,.23.51l20,12.54a.55.55,0,0,0,.33.07h0l.7-.13h0a.5.5,0,0,0,.38-.4l6.07-36.52A.52.52,0,0,0,162.83,42.56Z"/><path class="cls-8" d="M155.55,80.05l-20-12.54a.52.52,0,0,1-.23-.51l6.07-36.52a.5.5,0,0,1,.76-.34l20,12.54a.52.52,0,0,1,.23.51l-6.07,36.52A.5.5,0,0,1,155.55,80.05Z"/></g><g class="cls-9"><path class="cls-10" d="M143.33,37.55l-.12.66a.13.13,0,0,0,.06.14L159,48.14s.12,0,.13-.06l.12-.65a.2.2,0,0,0-.09-.2l-15.66-9.75A.11.11,0,0,0,143.33,37.55Z"/><path class="cls-10" d="M143.05,39.21l-.12.66A.13.13,0,0,0,143,40L158.7,49.8a.1.1,0,0,0,.14-.06l.11-.65a.17.17,0,0,0-.09-.19L143.2,39.14A.11.11,0,0,0,143.05,39.21Z"/><path class="cls-10" d="M142.76,40.87l-.11.67a.12.12,0,0,0,.06.13l15.71,9.79a.1.1,0,0,0,.14-.06l.11-.65a.17.17,0,0,0-.09-.19L142.92,40.8A.13.13,0,0,0,142.76,40.87Z"/></g><g class="cls-9"><path class="cls-10" d="M142.48,42.53l-.12.67a.12.12,0,0,0,.06.13l15.71,9.79a.1.1,0,0,0,.14-.06l.11-.65a.17.17,0,0,0-.09-.19l-15.66-9.76A.11.11,0,0,0,142.48,42.53Z"/><path class="cls-10" d="M142.19,44.19l-.11.67a.12.12,0,0,0,.06.13l15.71,9.79a.1.1,0,0,0,.14-.06l.11-.64a.18.18,0,0,0-.09-.2l-15.66-9.75A.11.11,0,0,0,142.19,44.19Z"/><path class="cls-10" d="M141.91,45.85l-.12.67a.13.13,0,0,0,.07.13l15.71,9.79a.09.09,0,0,0,.13-.06l.12-.64a.2.2,0,0,0-.09-.2l-15.66-9.75A.11.11,0,0,0,141.91,45.85Z"/></g><g class="cls-9"><path class="cls-10" d="M141.62,47.51l-.11.67a.12.12,0,0,0,.06.13l15.71,9.79a.1.1,0,0,0,.14-.06l.11-.64a.18.18,0,0,0-.09-.2l-15.66-9.75A.11.11,0,0,0,141.62,47.51Z"/><path class="cls-10" d="M141.34,49.17l-.12.67a.14.14,0,0,0,.07.14L157,59.76a.09.09,0,0,0,.13-.06l.12-.64a.2.2,0,0,0-.09-.2L141.5,49.11A.11.11,0,0,0,141.34,49.17Z"/><path class="cls-10" d="M141.06,50.84l-.12.66a.14.14,0,0,0,.06.14l15.72,9.78a.09.09,0,0,0,.13-.05l.12-.65a.2.2,0,0,0-.09-.2l-15.66-9.75A.11.11,0,0,0,141.06,50.84Z"/></g><g class="cls-9"><path class="cls-10" d="M140.77,52.5l-.12.66a.13.13,0,0,0,.07.14l15.71,9.78a.09.09,0,0,0,.13,0l.12-.65a.2.2,0,0,0-.09-.2l-15.66-9.75A.11.11,0,0,0,140.77,52.5Z"/><path class="cls-10" d="M140.49,54.16l-.12.66a.14.14,0,0,0,.06.14l15.72,9.78a.08.08,0,0,0,.13,0l.12-.65a.2.2,0,0,0-.09-.2l-15.66-9.75A.11.11,0,0,0,140.49,54.16Z"/><path class="cls-10" d="M140.21,55.82l-.12.66a.13.13,0,0,0,.06.14l15.71,9.79a.1.1,0,0,0,.14-.06l.12-.65a.21.21,0,0,0-.1-.2l-15.65-9.75A.11.11,0,0,0,140.21,55.82Z"/></g><g class="cls-9"><path class="cls-10" d="M139.92,57.48l-.12.66a.14.14,0,0,0,.06.14l15.72,9.79a.09.09,0,0,0,.13-.06l.12-.65a.18.18,0,0,0-.09-.19l-15.66-9.76A.11.11,0,0,0,139.92,57.48Z"/><path class="cls-10" d="M139.64,59.14l-.12.67a.12.12,0,0,0,.06.13l15.71,9.79a.1.1,0,0,0,.14-.06l.12-.65a.19.19,0,0,0-.1-.19L139.8,59.07A.12.12,0,0,0,139.64,59.14Z"/><path class="cls-10" d="M139.36,60.8l-.12.67a.12.12,0,0,0,.06.13L155,71.39a.1.1,0,0,0,.14-.06l.11-.65a.17.17,0,0,0-.09-.19l-15.66-9.76A.11.11,0,0,0,139.36,60.8Z"/><path class="cls-10" d="M139.07,62.46l-.11.67a.12.12,0,0,0,.06.13l10.38,6.47a.09.09,0,0,0,.13-.06l.12-.65a.18.18,0,0,0-.09-.19L139.23,62.4A.11.11,0,0,0,139.07,62.46Z"/></g><g class="cls-6"><path class="cls-11" d="M162.08,77.49l-10.65-6.68a.26.26,0,0,0-.21,0h0l-.3,0h0a.27.27,0,0,0-.25.22L147.43,90.5a.29.29,0,0,0,.12.27l10.65,6.67a.24.24,0,0,0,.18,0h0l.37-.06h0a.26.26,0,0,0,.2-.21l3.23-19.44A.26.26,0,0,0,162.08,77.49Z"/><path class="cls-12" d="M158.2,97.44l-10.65-6.67a.29.29,0,0,1-.12-.27l3.24-19.45a.27.27,0,0,1,.4-.18l10.65,6.68a.26.26,0,0,1,.12.27l-3.23,19.44A.27.27,0,0,1,158.2,97.44Z"/></g><g class="cls-13"><g class="cls-3"><path class="cls-14" d="M151.32,74.94l9,5.6-2,11.47-9-5.61,2-11.46m-.26-.73a.13.13,0,0,0-.14.1l-2.15,12.23a.17.17,0,0,0,.08.17l9.7,6,0,0a.13.13,0,0,0,.12-.09l2.15-12.2a.25.25,0,0,0-.12-.25l-9.63-6-.06,0Z"/></g><path class="cls-15" d="M149.3,87.94l-.21,1.16a.13.13,0,0,0,.06.14L156.87,94A.1.1,0,0,0,157,94l.2-1.15a.19.19,0,0,0-.09-.19l-7.67-4.76A.11.11,0,0,0,149.3,87.94Z"/><path class="cls-14" d="M153.71,80.18A3.88,3.88,0,0,0,155,83.41c.9.57,1.86-.3,2-1.17a2.83,2.83,0,0,0-1.35-2.59C154.72,79.08,153.87,79.32,153.71,80.18Z"/><path class="cls-14" d="M157.91,88.33c-1.38.94-3.62-.21-4.24-.57l-.08,0-.09,0s0,0,0,0c-2.77-1.94-2.8-3.62-2.8-3.69a2.13,2.13,0,0,1,1.07-.67,3.75,3.75,0,0,1,3,.65A7.58,7.58,0,0,1,157.91,88.33Z"/></g><path class="cls-16" d="M146,47.06,86.17,10.25a1.45,1.45,0,0,0-1.06-.2h0l-1.36.3h0a1.54,1.54,0,0,0-1.19,1.25L74.17,61.79a3.06,3.06,0,0,0,1.41,3.1L134.3,101a1.88,1.88,0,0,0,1.7.14h0l1-.19h.08l.07,0h0a1.85,1.85,0,0,0,1.4-1.51l8.34-50.38A2,2,0,0,0,146,47.06Z"/><path class="cls-17" d="M134.3,101,75.58,64.89a3.06,3.06,0,0,1-1.41-3.1l8.31-50.18a1.54,1.54,0,0,1,2.33-1.06l59.77,36.81a2,2,0,0,1,.91,2l-8.34,50.38A1.88,1.88,0,0,1,134.3,101Z"/><path class="cls-18" d="M134.59,99.4,76.37,63.56a1.84,1.84,0,0,1-.86-1.86l8-48.53A1,1,0,0,1,85,12.5l58.17,35.8a1.94,1.94,0,0,1,.9,2l-8,48.46A1,1,0,0,1,134.59,99.4Z"/><path class="cls-19" d="M134.59,101.22,75.29,64.71a2.75,2.75,0,0,0-2.9,0L29.18,91.24a1.53,1.53,0,0,0-.72,1.41v1.5a1.51,1.51,0,0,0,.71,1.49l59.27,36.49a2.79,2.79,0,0,0,2.92,0l43.22-26.55a1.49,1.49,0,0,0,.71-1.39v-1.67h0A1.52,1.52,0,0,0,134.59,101.22Z"/><path class="cls-20" d="M88.45,130.36,29.18,93.86a1.53,1.53,0,0,1,0-2.62L72.39,64.71a2.75,2.75,0,0,1,2.9,0l59.3,36.51a1.52,1.52,0,0,1,0,2.59L91.37,130.36A2.79,2.79,0,0,1,88.45,130.36Z"/><path class="cls-21" d="M70.67,117.64,49.94,104.87a.54.54,0,0,1,0-.92l14-8.76a1,1,0,0,1,1,0L85.69,108a.54.54,0,0,1,0,.91l-14,8.77A1,1,0,0,1,70.67,117.64Z"/><path class="cls-22" d="M85.92,108.52v0a.55.55,0,0,1-.23.32l-14,8.77a1,1,0,0,1-1,0L49.94,104.87a.52.52,0,0,1-.24-.33v0a.5.5,0,0,1,.24-.33l14-8.76a1,1,0,0,1,1,0L85.69,108.2A.55.55,0,0,1,85.92,108.52Z"/><path class="cls-23" d="M85.92,108.52v0a.55.55,0,0,1-.23.32l-14,8.77a1,1,0,0,1-1,0L49.94,104.87a.52.52,0,0,1-.24-.33v0a.5.5,0,0,1,.24-.33l14-8.76a1,1,0,0,1,1,0L85.69,108.2A.55.55,0,0,1,85.92,108.52Z"/><path class="cls-24" d="M93.77,85.46,91,83.74a.29.29,0,0,0-.31,0l-2.93,1.83a.17.17,0,0,0-.08.14h0v.36h0a.2.2,0,0,0,.08.14l2.8,1.72a.34.34,0,0,0,.31,0l2.93-1.84a.15.15,0,0,0,.07-.13h0v-.37h0A.15.15,0,0,0,93.77,85.46Z"/><path class="cls-25" d="M97.43,87.71,94.63,86a.29.29,0,0,0-.31,0l-2.93,1.83a.16.16,0,0,0-.07.14h0v.36h0a.15.15,0,0,0,.07.14l2.8,1.72a.29.29,0,0,0,.31,0l2.93-1.83a.19.19,0,0,0,.08-.14h0v-.36h0A.16.16,0,0,0,97.43,87.71Z"/><path class="cls-26" d="M101.09,90l-2.8-1.72a.27.27,0,0,0-.3,0l-2.93,1.83a.15.15,0,0,0-.08.14h0v.36h0a.16.16,0,0,0,.08.13l2.79,1.72a.29.29,0,0,0,.31,0l2.93-1.83a.17.17,0,0,0,.08-.14h0V90.1h0A.17.17,0,0,0,101.09,90Z"/><path class="cls-27" d="M104.76,92.21,102,90.49a.29.29,0,0,0-.31,0l-2.93,1.83a.19.19,0,0,0-.08.15h0v.36h0a.16.16,0,0,0,.08.13l2.8,1.72a.29.29,0,0,0,.31,0l2.93-1.83a.15.15,0,0,0,.07-.14h0v-.36h0A.16.16,0,0,0,104.76,92.21Z"/><path class="cls-28" d="M121.13,102.44h0a.15.15,0,0,0-.07-.14l-1.31-.8h0l-3.21-2a.29.29,0,0,0-.31,0l-2.93,1.83a.17.17,0,0,0-.08.14h0v.36h0a.2.2,0,0,0,.08.14l1.72,1,2.8,1.72a.27.27,0,0,0,.3,0l2.94-1.83a.17.17,0,0,0,.07-.14h0v-.36Z"/><path class="cls-29" d="M91.5,88.92l-2.8-1.73a.34.34,0,0,0-.31,0L85.46,89a.16.16,0,0,0-.08.14h0v.36h0a.16.16,0,0,0,.08.13l2.8,1.72a.27.27,0,0,0,.3,0l2.94-1.83a.15.15,0,0,0,.07-.13h0v-.37h0A.15.15,0,0,0,91.5,88.92Z"/><path class="cls-30" d="M95.16,91.17l-2.8-1.72a.29.29,0,0,0-.31,0l-2.93,1.83a.16.16,0,0,0-.07.14h0v.36h0a.16.16,0,0,0,.07.14l2.8,1.72a.34.34,0,0,0,.31,0l2.93-1.84a.16.16,0,0,0,.08-.13h0V91.3h0A.16.16,0,0,0,95.16,91.17Z"/><path class="cls-31" d="M98.82,93.42,96,91.7a.27.27,0,0,0-.3,0l-2.93,1.83a.15.15,0,0,0-.08.14h0V94h0a.16.16,0,0,0,.08.14l2.79,1.72a.29.29,0,0,0,.31,0l2.93-1.84a.16.16,0,0,0,.08-.13h0v-.37h0A.16.16,0,0,0,98.82,93.42Z"/><path class="cls-32" d="M117.14,104.68l-2.8-1.72a.29.29,0,0,0-.31,0l-2.93,1.83a.16.16,0,0,0-.07.14h0v.36h0a.16.16,0,0,0,.07.14l2.8,1.72a.34.34,0,0,0,.31,0l2.93-1.84a.16.16,0,0,0,.08-.13h0v-.37h0A.16.16,0,0,0,117.14,104.68Z"/><path class="cls-33" d="M78.57,75.42h0v.36h0a.16.16,0,0,0,.07.14l2.8,1.72a.31.31,0,0,0,.31,0L83,76.83a.16.16,0,0,0,.08-.14h0v-.36h0a.15.15,0,0,0-.07-.14l-2.81-1.72a.27.27,0,0,0-.3,0l-1.29.81A.14.14,0,0,0,78.57,75.42Z"/><path class="cls-34" d="M82.23,77.67h0V78h0a.14.14,0,0,0,.08.14l2.79,1.72a.29.29,0,0,0,.31,0l1.29-.81a.16.16,0,0,0,.07-.14h0v-.36h0a.16.16,0,0,0-.07-.14l-2.8-1.72a.29.29,0,0,0-.31,0l-1.28.81A.15.15,0,0,0,82.23,77.67Z"/><path class="cls-35" d="M85.89,79.93h0v.36h0a.16.16,0,0,0,.08.13l2.8,1.72a.27.27,0,0,0,.3,0l1.29-.81a.16.16,0,0,0,.08-.14h0v-.36h0a.19.19,0,0,0-.08-.14L87.56,79a.29.29,0,0,0-.31,0L86,79.78A.19.19,0,0,0,85.89,79.93Z"/><path class="cls-36" d="M89.56,82.18h0v.36h0a.15.15,0,0,0,.07.13l2.8,1.72a.29.29,0,0,0,.31,0L94,83.58a.14.14,0,0,0,.08-.13h0v-.37h0A.14.14,0,0,0,94,83l-2.8-1.73a.32.32,0,0,0-.3,0L89.63,82A.16.16,0,0,0,89.56,82.18Z"/><path class="cls-37" d="M93.22,84.43h0v.36h0a.16.16,0,0,0,.08.14l2.79,1.71a.29.29,0,0,0,.31,0l1.29-.81a.15.15,0,0,0,.07-.13h0v-.37h0a.15.15,0,0,0-.07-.13l-2.8-1.72a.29.29,0,0,0-.31,0l-1.28.81A.14.14,0,0,0,93.22,84.43Z"/><path class="cls-38" d="M96.88,86.68h0V87h0a.17.17,0,0,0,.08.14l2.8,1.72a.32.32,0,0,0,.3,0l1.29-.81a.19.19,0,0,0,.08-.14h0v-.36h0a.16.16,0,0,0-.08-.14l-2.8-1.72a.29.29,0,0,0-.31,0L97,86.54A.17.17,0,0,0,96.88,86.68Z"/><path class="cls-39" d="M100.55,88.93h0v.36h0a.15.15,0,0,0,.07.14l2.8,1.72a.29.29,0,0,0,.31,0l1.28-.81a.17.17,0,0,0,.08-.14h0v-.36h0a.14.14,0,0,0-.08-.14L102.21,88a.27.27,0,0,0-.3,0l-1.29.81A.14.14,0,0,0,100.55,88.93Z"/><path class="cls-40" d="M104.21,91.19h0v.36h0a.14.14,0,0,0,.08.13l2.79,1.72a.29.29,0,0,0,.31,0l1.29-.81a.15.15,0,0,0,.07-.14h0v-.36h0a.16.16,0,0,0-.07-.14l-2.8-1.72a.29.29,0,0,0-.31,0l-1.28.81A.16.16,0,0,0,104.21,91.19Z"/><path class="cls-41" d="M107.87,93.44h0v.36h0a.16.16,0,0,0,.08.13l2.8,1.72a.27.27,0,0,0,.3,0l1.29-.81a.16.16,0,0,0,.08-.13h0v-.37h0a.16.16,0,0,0-.08-.13l-2.8-1.73a.34.34,0,0,0-.31,0l-1.28.81A.19.19,0,0,0,107.87,93.44Z"/><path class="cls-42" d="M111.54,95.69h0v.36h0a.15.15,0,0,0,.07.13l2.8,1.72a.29.29,0,0,0,.31,0l1.28-.81a.16.16,0,0,0,.08-.13h0v-.37h0a.14.14,0,0,0-.08-.13l-2.8-1.72a.27.27,0,0,0-.3,0l-1.29.81A.13.13,0,0,0,111.54,95.69Z"/><path class="cls-43" d="M115.2,97.94h0v.36h0a.16.16,0,0,0,.07.14l2.8,1.72a.34.34,0,0,0,.31,0l1.29-.82a.15.15,0,0,0,.07-.13h0v-.37h0a.15.15,0,0,0-.07-.13L116.87,97a.29.29,0,0,0-.31,0l-1.28.81A.15.15,0,0,0,115.2,97.94Z"/><path class="cls-44" d="M123.41,101.1h0a.16.16,0,0,0-.08-.14l-2.8-1.72a.29.29,0,0,0-.31,0l-1.28.81a.17.17,0,0,0-.08.14h0v.36h0a.16.16,0,0,0,.08.14l2.8,1.72a.27.27,0,0,0,.3,0l1.29-.81a.17.17,0,0,0,.08-.14h0v-.36Z"/><path class="cls-45" d="M113.48,107.31h0a.15.15,0,0,0-.07-.14l-1.3-.8h0l-4.21-2.57a.27.27,0,0,0-.3,0l-2.93,1.83a.14.14,0,0,0-.08.14h0v.36h0a.16.16,0,0,0,.08.14l2.7,1.65,2.8,1.72a.29.29,0,0,0,.31,0l2.93-1.83a.17.17,0,0,0,.07-.14h0v-.36Z"/><path class="cls-46" d="M109.61,109.72h0a.15.15,0,0,0-.07-.13l-1.3-.8h0L102.12,105a.29.29,0,0,0-.31,0l-2.93,1.83a.19.19,0,0,0-.08.15h0v.36h0a.16.16,0,0,0,.08.13l4.62,2.83,2.8,1.71a.29.29,0,0,0,.31,0l2.93-1.83a.15.15,0,0,0,.07-.13h0v-.37Z"/><path class="cls-47" d="M105.69,112.05l-2.8-1.72a.29.29,0,0,0-.31,0l-2.93,1.83a.16.16,0,0,0-.07.15h0v.36h0a.18.18,0,0,0,.08.13l2.8,1.72a.29.29,0,0,0,.31,0l2.93-1.83a.15.15,0,0,0,.07-.13h0v-.37h0A.17.17,0,0,0,105.69,112.05Z"/><path class="cls-48" d="M95.19,105.14l2.8,1.72a.29.29,0,0,0,.31,0l2.93-1.83a.16.16,0,0,0,.08-.14h0v-.36h0a.17.17,0,0,0-.08-.14l-2.8-1.72a.27.27,0,0,0-.3,0L95.2,104.5a.17.17,0,0,0-.08.15h0V105h0A.15.15,0,0,0,95.19,105.14Z"/><path class="cls-49" d="M57.9,82.22l1.71,1L65,86.59a.27.27,0,0,0,.3,0l2.94-1.83a.17.17,0,0,0,.07-.14h0v-.36h0a.15.15,0,0,0-.07-.14l-3.88-2.4h0l-3.22-2a.27.27,0,0,0-.3,0L57.9,81.58a.14.14,0,0,0-.08.14h0v.36h0A.19.19,0,0,0,57.9,82.22Z"/><path class="cls-50" d="M91,103.48h0v-.37h0A.16.16,0,0,0,91,103L73.67,92.33a.27.27,0,0,0-.3,0l-2.93,1.83a.17.17,0,0,0-.08.15h0v.36h0a.14.14,0,0,0,.08.13l17.27,10.65a.29.29,0,0,0,.31,0L91,103.61A.16.16,0,0,0,91,103.48Z"/><path class="cls-51" d="M72.8,92.26h0V91.9h0a.14.14,0,0,0-.08-.14l-1.3-.8h0l-3.21-2a.29.29,0,0,0-.31,0L65,90.82a.17.17,0,0,0-.08.14h0v.36h0a.16.16,0,0,0,.08.14l1.72,1.05,2.79,1.72a.29.29,0,0,0,.31,0l2.93-1.83A.17.17,0,0,0,72.8,92.26Z"/><path class="cls-52" d="M60.17,84.44h0v-.37h0a.19.19,0,0,0-.08-.14l-2.8-1.72a.34.34,0,0,0-.31,0L54.05,84a.18.18,0,0,0-.07.15h0v.36h0a.15.15,0,0,0,.07.13l2.8,1.72a.29.29,0,0,0,.31,0l2.93-1.83A.16.16,0,0,0,60.17,84.44Z"/><path class="cls-53" d="M63.83,86.69h0v-.37h0a.16.16,0,0,0-.08-.13L61,84.47a.29.29,0,0,0-.3,0L57.72,86.3a.14.14,0,0,0-.08.14h0v.36h0a.19.19,0,0,0,.08.14l2.79,1.71a.29.29,0,0,0,.31,0l2.93-1.83A.16.16,0,0,0,63.83,86.69Z"/><path class="cls-54" d="M67.49,88.94h0v-.37h0a.15.15,0,0,0-.07-.13l-2.8-1.72a.29.29,0,0,0-.31,0l-2.93,1.83a.17.17,0,0,0-.08.14h0v.36h0a.17.17,0,0,0,.08.14l2.8,1.72a.34.34,0,0,0,.31,0l2.93-1.84A.15.15,0,0,0,67.49,88.94Z"/><path class="cls-55" d="M100.36,111.39h0v-.31l.17.1a.27.27,0,0,0,.3,0l1.2-.74a.15.15,0,0,0,.07-.14h0v-.36h0a.16.16,0,0,0-.07-.14l-2.8-1.72a.29.29,0,0,0-.31,0l-1.19.74a.19.19,0,0,0-.08.15h0v.3l-.17-.1a.27.27,0,0,0-.3,0l-1.19.74a.17.17,0,0,0-.08.15h0v.36h0a.16.16,0,0,0,.08.13l2.79,1.72a.29.29,0,0,0,.31,0l1.19-.74A.17.17,0,0,0,100.36,111.39Z"/><path class="cls-56" d="M94.77,105.8h0v-.36h0a.15.15,0,0,0-.07-.13l-2.8-1.72a.29.29,0,0,0-.31,0l-2.93,1.83a.14.14,0,0,0-.07.14h0v.36h0a.2.2,0,0,0,.08.14l2.8,1.72a.34.34,0,0,0,.31,0l2.93-1.84A.15.15,0,0,0,94.77,105.8Z"/><path class="cls-57" d="M98.44,108.05h0v-.36h0a.16.16,0,0,0-.08-.14l-2.8-1.72a.27.27,0,0,0-.3,0l-2.94,1.83a.16.16,0,0,0-.07.14h0v.36h0a.15.15,0,0,0,.07.14l2.8,1.72a.29.29,0,0,0,.31,0l2.93-1.83A.17.17,0,0,0,98.44,108.05Z"/><path class="cls-58" d="M69.41,75l2.8,1.72a.34.34,0,0,0,.31,0l2.93-1.84a.16.16,0,0,0,.08-.13h0v-.37h0a.16.16,0,0,0-.08-.13l-2.8-1.72a.29.29,0,0,0-.31,0l-2.93,1.83a.16.16,0,0,0-.07.14h0v.36h0A.16.16,0,0,0,69.41,75Z"/><path class="cls-59" d="M73,77.06h0a.16.16,0,0,0,.08.14l2.79,1.72a.29.29,0,0,0,.31,0l2.93-1.83a.17.17,0,0,0,.08-.14h0v-.36h0a.14.14,0,0,0-.08-.14l-2.8-1.72a.27.27,0,0,0-.3,0l-2.93,1.83a.15.15,0,0,0-.08.14h0Z"/><path class="cls-60" d="M82.85,78.84a.16.16,0,0,0-.07-.14L80,77a.29.29,0,0,0-.31,0l-2.93,1.83a.18.18,0,0,0-.08.15h0v.36h0a.18.18,0,0,0,.08.13l2.8,1.72a.29.29,0,0,0,.31,0l2.93-1.83a.15.15,0,0,0,.07-.14h0v-.36Z"/><path class="cls-61" d="M86.52,81.09a.19.19,0,0,0-.08-.14l-2.8-1.72a.31.31,0,0,0-.31,0L80.4,81.06a.18.18,0,0,0-.07.15h0v.36h0a.15.15,0,0,0,.07.13l2.8,1.72a.29.29,0,0,0,.31,0l2.93-1.83a.16.16,0,0,0,.08-.13h0v-.37Z"/><path class="cls-62" d="M90.18,83.34a.14.14,0,0,0-.08-.13l-2.8-1.73a.32.32,0,0,0-.3,0l-2.93,1.84a.14.14,0,0,0-.08.14h0v.36h0a.16.16,0,0,0,.08.13l2.79,1.72a.29.29,0,0,0,.31,0l2.93-1.83a.16.16,0,0,0,.08-.13h0v-.37Z"/><path class="cls-63" d="M108.5,94.6a.16.16,0,0,0-.08-.13l-2.8-1.73a.34.34,0,0,0-.31,0l-2.93,1.84a.15.15,0,0,0-.07.14h0v.36h0a.15.15,0,0,0,.07.13l2.8,1.72a.29.29,0,0,0,.31,0l2.93-1.83a.16.16,0,0,0,.08-.13h0V94.6Z"/><path class="cls-64" d="M112.16,96.85a.16.16,0,0,0-.08-.13L109.28,95a.27.27,0,0,0-.3,0l-2.93,1.83A.15.15,0,0,0,106,97h0v.36h0a.17.17,0,0,0,.08.14l2.79,1.72a.34.34,0,0,0,.31,0l2.93-1.84a.16.16,0,0,0,.08-.13h0v-.37Z"/><path class="cls-65" d="M115.82,99.47h0v-.36h0a.15.15,0,0,0-.07-.13L113,97.25a.29.29,0,0,0-.31,0l-2.93,1.83a.17.17,0,0,0-.08.14h0v.36h0a.16.16,0,0,0,.08.14l2.8,1.72a.29.29,0,0,0,.31,0l2.93-1.84A.15.15,0,0,0,115.82,99.47Z"/><path class="cls-66" d="M70.73,80.52h0a.17.17,0,0,0,.08.14l2.79,1.72a.34.34,0,0,0,.31,0l2.93-1.84a.16.16,0,0,0,.08-.13h0V80h0a.16.16,0,0,0-.08-.13L74,78.19a.27.27,0,0,0-.3,0L70.81,80a.15.15,0,0,0-.08.14h0Z"/><path class="cls-67" d="M74.39,82.77h0a.16.16,0,0,0,.08.14l2.8,1.72a.27.27,0,0,0,.3,0l2.94-1.83a.17.17,0,0,0,.07-.14h0V82.3h0a.15.15,0,0,0-.07-.14l-2.8-1.72a.29.29,0,0,0-.31,0l-2.93,1.83a.17.17,0,0,0-.08.14h0Z"/><path class="cls-68" d="M84.25,84.55a.17.17,0,0,0-.08-.14l-2.8-1.72a.29.29,0,0,0-.31,0l-2.93,1.83a.16.16,0,0,0-.07.14h0V85h0a.15.15,0,0,0,.07.13l2.8,1.72a.29.29,0,0,0,.31,0l2.93-1.83a.17.17,0,0,0,.08-.14h0v-.36Z"/><path class="cls-69" d="M87.91,86.8a.17.17,0,0,0-.08-.14L85,84.94a.27.27,0,0,0-.3,0L81.8,86.77a.17.17,0,0,0-.08.15h0v.36h0a.16.16,0,0,0,.08.13l2.79,1.72a.29.29,0,0,0,.31,0l2.93-1.83a.16.16,0,0,0,.08-.14h0V86.8Z"/><path class="cls-70" d="M96.37,96.29h0a.16.16,0,0,0,.08.14l2.8,1.72a.27.27,0,0,0,.3,0l2.94-1.83a.16.16,0,0,0,.07-.14h0v-.36h0a.15.15,0,0,0-.07-.14L99.69,94a.29.29,0,0,0-.31,0l-2.93,1.83a.17.17,0,0,0-.08.14h0Z"/><path class="cls-71" d="M106.23,98.42h0v-.36h0a.17.17,0,0,0-.08-.14l-2.8-1.72a.29.29,0,0,0-.31,0L100.11,98a.18.18,0,0,0-.07.15h0v.36h0a.15.15,0,0,0,.07.13l2.8,1.72a.29.29,0,0,0,.31,0l2.93-1.83A.16.16,0,0,0,106.23,98.42Z"/><path class="cls-72" d="M109.89,100.68h0v-.37h0a.16.16,0,0,0-.08-.13L107,98.45a.32.32,0,0,0-.3,0l-2.93,1.83a.17.17,0,0,0-.08.15h0v.36h0a.16.16,0,0,0,.08.13l2.79,1.72a.29.29,0,0,0,.31,0l2.93-1.83A.16.16,0,0,0,109.89,100.68Z"/><path class="cls-73" d="M113.55,102.56a.15.15,0,0,0-.07-.13l-2.8-1.72a.29.29,0,0,0-.31,0l-2.93,1.83a.16.16,0,0,0-.08.14h0V103h0a.19.19,0,0,0,.08.14l2.8,1.71a.29.29,0,0,0,.3,0l2.94-1.84a.15.15,0,0,0,.07-.13h0v-.37Z"/><path class="cls-74" d="M65.4,77.29l1.72,1,2.8,1.72a.32.32,0,0,0,.3,0l2.94-1.84a.15.15,0,0,0,.07-.13h0v-.36h0a.15.15,0,0,0-.07-.13l-1.31-.8h0l-3.21-2a.29.29,0,0,0-.31,0L65.4,76.65a.17.17,0,0,0-.08.14h0v.36h0A.19.19,0,0,0,65.4,77.29Z"/><path class="cls-75" d="M73.24,72.55l1.71,1,2.8,1.72a.29.29,0,0,0,.31,0l1.29-.81a.16.16,0,0,0,.07-.14h0V74h0a.15.15,0,0,0-.07-.14L78,73.07h0l-3.21-2a.29.29,0,0,0-.31,0l-1.28.81a.15.15,0,0,0-.08.14h0v.36h0A.17.17,0,0,0,73.24,72.55Z"/><path class="cls-76" d="M68,83.55h0a.2.2,0,0,0,.08.14l2.8,1.72a.29.29,0,0,0,.31,0l2.93-1.84a.15.15,0,0,0,.07-.13h0v-.37h0a.15.15,0,0,0-.07-.13l-2.8-1.72a.29.29,0,0,0-.31,0l-2.93,1.83a.17.17,0,0,0-.08.14h0Z"/><path class="cls-77" d="M71.67,85.81h0a.15.15,0,0,0,.07.14l2.8,1.72a.29.29,0,0,0,.31,0l2.93-1.83a.17.17,0,0,0,.08-.14h0v-.36h0a.16.16,0,0,0-.08-.14L75,83.47a.29.29,0,0,0-.31,0L71.74,85.3a.16.16,0,0,0-.07.14h0Z"/><path class="cls-78" d="M75.33,88.06h0a.16.16,0,0,0,.08.13l2.79,1.72a.29.29,0,0,0,.31,0l2.93-1.83a.16.16,0,0,0,.08-.14h0v-.36h0a.17.17,0,0,0-.08-.14l-2.8-1.72a.27.27,0,0,0-.3,0l-2.93,1.83a.17.17,0,0,0-.08.15h0Z"/><path class="cls-79" d="M79.07,90.44l2.8,1.72a.29.29,0,0,0,.31,0l2.93-1.83a.15.15,0,0,0,.07-.13h0v-.37h0a.17.17,0,0,0-.07-.14L82.31,88A.34.34,0,0,0,82,88L79.07,89.8A.19.19,0,0,0,79,90h0v.36h0A.16.16,0,0,0,79.07,90.44Z"/><path class="cls-80" d="M82.73,92.7l2.8,1.71a.29.29,0,0,0,.31,0l2.93-1.83a.16.16,0,0,0,.08-.13h0v-.37h0a.16.16,0,0,0-.08-.13L86,90.23a.31.31,0,0,0-.31,0l-2.93,1.84a.15.15,0,0,0-.07.14h0v.36h0A.17.17,0,0,0,82.73,92.7Z"/><path class="cls-81" d="M86.4,95l2.79,1.72a.34.34,0,0,0,.31,0l2.93-1.84a.16.16,0,0,0,.08-.13h0v-.37h0a.16.16,0,0,0-.08-.13l-2.8-1.72a.27.27,0,0,0-.3,0L86.4,94.31a.15.15,0,0,0-.08.14h0v.36h0A.17.17,0,0,0,86.4,95Z"/><path class="cls-82" d="M90.06,97.2l2.8,1.72a.29.29,0,0,0,.31,0l2.93-1.83a.17.17,0,0,0,.07-.14h0v-.36h0a.15.15,0,0,0-.07-.14l-2.8-1.72a.29.29,0,0,0-.31,0l-2.93,1.83a.17.17,0,0,0-.08.14h0v.36h0A.16.16,0,0,0,90.06,97.2Z"/><path class="cls-83" d="M93.72,99.45l2.8,1.72a.29.29,0,0,0,.31,0l2.93-1.83a.16.16,0,0,0,.08-.14h0v-.36h0a.17.17,0,0,0-.08-.14L97,97a.29.29,0,0,0-.31,0l-2.93,1.83a.16.16,0,0,0-.07.14h0v.36h0A.15.15,0,0,0,93.72,99.45Z"/><path class="cls-84" d="M97.39,101.7l2.79,1.72a.29.29,0,0,0,.31,0l2.93-1.83a.16.16,0,0,0,.08-.13h0v-.37h0a.19.19,0,0,0-.08-.14l-2.8-1.72a.27.27,0,0,0-.3,0l-2.93,1.83a.17.17,0,0,0-.08.15h0v.36h0A.16.16,0,0,0,97.39,101.7Z"/><path class="cls-85" d="M104.16,105.67l2.93-1.83a.15.15,0,0,0,.07-.13h0v-.37h0a.15.15,0,0,0-.07-.13l-2.8-1.73a.34.34,0,0,0-.31,0l-2.93,1.84a.16.16,0,0,0-.08.14h0v.36h0a.16.16,0,0,0,.08.13l2.8,1.72A.29.29,0,0,0,104.16,105.67Z"/><path class="cls-86" d="M61.77,79.8l1.71,1,3.72,2.29a.29.29,0,0,0,.31,0l2.93-1.83a.17.17,0,0,0,.07-.14h0v-.36h0a.15.15,0,0,0-.07-.14L68.22,79.3h0l-3.22-2a.27.27,0,0,0-.3,0l-2.93,1.83a.15.15,0,0,0-.08.14h0v.36h0A.16.16,0,0,0,61.77,79.8Z"/><path class="cls-87" d="M65.81,87h0a.17.17,0,0,0,.08.14l2.8,1.72a.32.32,0,0,0,.3,0L71.93,87a.15.15,0,0,0,.07-.13h0v-.37h0a.15.15,0,0,0-.07-.13l-2.8-1.72a.29.29,0,0,0-.31,0l-2.93,1.83a.17.17,0,0,0-.08.14h0Z"/><path class="cls-88" d="M69.55,89.38l2.8,1.72a.29.29,0,0,0,.31,0l2.93-1.83a.23.23,0,0,0,.08-.14h0v-.36h0a.18.18,0,0,0-.08-.14l-2.8-1.72a.29.29,0,0,0-.31,0l-2.93,1.83a.14.14,0,0,0-.07.14h0v.36h0A.15.15,0,0,0,69.55,89.38Z"/><path class="cls-89" d="M73.14,91.5h0a.14.14,0,0,0,.08.13L76,93.35a.29.29,0,0,0,.31,0l2.93-1.83a.16.16,0,0,0,.08-.14h0V91h0a.17.17,0,0,0-.08-.14l-2.8-1.72a.27.27,0,0,0-.3,0L73.22,91a.16.16,0,0,0-.08.15h0Z"/><path class="cls-90" d="M76.8,93.75h0a.16.16,0,0,0,.08.13l2.8,1.72a.27.27,0,0,0,.3,0l2.94-1.83a.15.15,0,0,0,.07-.13h0v-.37h0a.17.17,0,0,0-.07-.14l-2.8-1.72a.29.29,0,0,0-.31,0l-2.93,1.83a.19.19,0,0,0-.08.15h0Z"/><path class="cls-91" d="M80.54,96.13l2.8,1.72a.29.29,0,0,0,.31,0L86.58,96a.15.15,0,0,0,.07-.13h0v-.37h0a.15.15,0,0,0-.07-.13l-2.8-1.73a.34.34,0,0,0-.31,0L80.54,95.5a.13.13,0,0,0-.07.14h0V96h0A.15.15,0,0,0,80.54,96.13Z"/><path class="cls-92" d="M84.21,98.39,87,100.11a.34.34,0,0,0,.31,0l2.93-1.84a.16.16,0,0,0,.08-.13h0v-.37h0a.16.16,0,0,0-.08-.13l-2.8-1.72a.27.27,0,0,0-.3,0l-2.93,1.83a.15.15,0,0,0-.08.14h0v.36h0A.15.15,0,0,0,84.21,98.39Z"/><path class="cls-93" d="M87.87,100.64l2.8,1.72a.27.27,0,0,0,.3,0l2.94-1.83a.17.17,0,0,0,.07-.14h0V100h0a.15.15,0,0,0-.07-.14L91.1,98.17a.27.27,0,0,0-.3,0L87.87,100a.17.17,0,0,0-.08.14h0v.36h0A.16.16,0,0,0,87.87,100.64Z"/><path class="cls-94" d="M91.53,102.89l2.8,1.72a.29.29,0,0,0,.31,0l2.93-1.83a.16.16,0,0,0,.07-.14h0v-.36h0a.16.16,0,0,0-.07-.14l-2.8-1.72a.29.29,0,0,0-.31,0l-2.93,1.83a.14.14,0,0,0-.07.14h0v.36h0A.15.15,0,0,0,91.53,102.89Z"/><path class="cls-95" d="M72.21,76.3l-2.8-1.72a.16.16,0,0,1,0-.27l2.93-1.83a.29.29,0,0,1,.31,0l2.8,1.72a.16.16,0,0,1,0,.27L72.52,76.3A.29.29,0,0,1,72.21,76.3Z"/><path class="cls-96" d="M75.87,78.56l-2.79-1.72a.16.16,0,0,1,0-.28L76,74.73a.27.27,0,0,1,.3,0l2.8,1.72a.15.15,0,0,1,0,.27l-2.93,1.84A.34.34,0,0,1,75.87,78.56Z"/><path class="cls-97" d="M79.54,80.81l-2.8-1.72a.17.17,0,0,1,0-.28L79.67,77A.29.29,0,0,1,80,77l2.8,1.72a.17.17,0,0,1,0,.28l-2.93,1.83A.29.29,0,0,1,79.54,80.81Z"/><path class="cls-98" d="M83.2,83.06l-2.8-1.72a.17.17,0,0,1,0-.28l2.93-1.83a.31.31,0,0,1,.31,0L86.44,81a.17.17,0,0,1,0,.28l-2.93,1.83A.29.29,0,0,1,83.2,83.06Z"/><path class="cls-99" d="M86.86,85.31l-2.79-1.72a.15.15,0,0,1,0-.27L87,81.48a.32.32,0,0,1,.3,0l2.8,1.73a.15.15,0,0,1,0,.27l-2.93,1.83A.29.29,0,0,1,86.86,85.31Z"/><path class="cls-100" d="M90.53,87.56l-2.8-1.72a.16.16,0,0,1,0-.27l2.93-1.83a.29.29,0,0,1,.31,0l2.8,1.72a.16.16,0,0,1,0,.27l-2.93,1.83A.29.29,0,0,1,90.53,87.56Z"/><path class="cls-101" d="M94.19,89.82l-2.8-1.72a.17.17,0,0,1,0-.28L94.32,86a.29.29,0,0,1,.31,0l2.8,1.72a.16.16,0,0,1,0,.27L94.5,89.82A.34.34,0,0,1,94.19,89.82Z"/><path class="cls-102" d="M97.85,92.07l-2.79-1.72a.16.16,0,0,1,0-.28L98,88.24a.27.27,0,0,1,.3,0l2.8,1.72a.15.15,0,0,1,0,.27l-2.93,1.84A.29.29,0,0,1,97.85,92.07Z"/><path class="cls-103" d="M101.52,94.32l-2.8-1.72a.17.17,0,0,1,0-.28l2.93-1.83a.29.29,0,0,1,.31,0l2.8,1.72a.17.17,0,0,1,0,.28l-2.93,1.83A.29.29,0,0,1,101.52,94.32Z"/><path class="cls-104" d="M105.18,96.57l-2.8-1.72a.16.16,0,0,1,0-.27l2.93-1.84a.34.34,0,0,1,.31,0l2.8,1.73a.16.16,0,0,1,0,.27l-2.93,1.83A.29.29,0,0,1,105.18,96.57Z"/><path class="cls-105" d="M108.84,98.82l-2.79-1.72a.15.15,0,0,1,0-.27L109,95a.27.27,0,0,1,.3,0l2.8,1.72a.15.15,0,0,1,0,.27l-2.93,1.83A.29.29,0,0,1,108.84,98.82Z"/><path class="cls-106" d="M112.51,101.07l-2.8-1.71a.17.17,0,0,1,0-.28l2.93-1.83a.29.29,0,0,1,.31,0l2.8,1.72a.16.16,0,0,1,0,.27l-2.93,1.83A.29.29,0,0,1,112.51,101.07Z"/><path class="cls-107" d="M121.06,102.3l-1.31-.8h0l-3.21-2a.29.29,0,0,0-.31,0l-2.93,1.83a.17.17,0,0,0,0,.28l1.72,1h0l2.8,1.72a.32.32,0,0,0,.3,0l2.94-1.84A.16.16,0,0,0,121.06,102.3Z"/><path class="cls-108" d="M73.6,82l-2.79-1.72a.15.15,0,0,1,0-.27l2.93-1.83a.27.27,0,0,1,.3,0l2.8,1.72a.15.15,0,0,1,0,.27L73.91,82A.29.29,0,0,1,73.6,82Z"/><path class="cls-109" d="M77.27,84.27l-2.8-1.72a.17.17,0,0,1,0-.28l2.93-1.83a.29.29,0,0,1,.31,0l2.8,1.72a.16.16,0,0,1,0,.27l-2.94,1.84A.32.32,0,0,1,77.27,84.27Z"/><path class="cls-110" d="M80.93,86.52l-2.8-1.72a.17.17,0,0,1,0-.28l2.93-1.83a.29.29,0,0,1,.31,0l2.8,1.72a.16.16,0,0,1,0,.27l-2.93,1.84A.29.29,0,0,1,80.93,86.52Z"/><path class="cls-111" d="M84.59,88.77,81.8,87.05a.16.16,0,0,1,0-.28l2.93-1.83a.27.27,0,0,1,.3,0l2.8,1.72a.16.16,0,0,1,0,.28L84.9,88.77A.29.29,0,0,1,84.59,88.77Z"/><path class="cls-112" d="M88.26,91l-2.8-1.72a.16.16,0,0,1,0-.27l2.93-1.84a.34.34,0,0,1,.31,0l2.8,1.73a.16.16,0,0,1,0,.27L88.56,91A.27.27,0,0,1,88.26,91Z"/><path class="cls-113" d="M91.92,93.27l-2.8-1.72a.16.16,0,0,1,0-.27l2.93-1.83a.29.29,0,0,1,.31,0l2.8,1.72a.16.16,0,0,1,0,.27l-2.93,1.83A.29.29,0,0,1,91.92,93.27Z"/><path class="cls-114" d="M95.58,95.52l-2.79-1.71a.16.16,0,0,1,0-.28l2.93-1.83a.27.27,0,0,1,.3,0l2.8,1.72a.15.15,0,0,1,0,.27l-2.93,1.83A.29.29,0,0,1,95.58,95.52Z"/><path class="cls-115" d="M99.25,97.78l-2.8-1.72a.17.17,0,0,1,0-.28L99.38,94a.29.29,0,0,1,.31,0l2.8,1.72a.16.16,0,0,1,0,.27l-2.94,1.84A.32.32,0,0,1,99.25,97.78Z"/><path class="cls-116" d="M102.91,100l-2.8-1.72a.17.17,0,0,1,0-.28L103,96.2a.29.29,0,0,1,.31,0l2.8,1.72a.17.17,0,0,1,0,.28L103.22,100A.29.29,0,0,1,102.91,100Z"/><path class="cls-117" d="M106.57,102.28l-2.79-1.72a.16.16,0,0,1,0-.28l2.93-1.83a.32.32,0,0,1,.3,0l2.8,1.73a.15.15,0,0,1,0,.27l-2.93,1.83A.29.29,0,0,1,106.57,102.28Z"/><path class="cls-118" d="M110.24,104.53l-2.8-1.72a.16.16,0,0,1,0-.27l2.93-1.83a.29.29,0,0,1,.31,0l2.8,1.72a.16.16,0,0,1,0,.27l-2.94,1.83A.27.27,0,0,1,110.24,104.53Z"/><path class="cls-119" d="M113.9,106.78l-2.8-1.71a.17.17,0,0,1,0-.28L114,103a.29.29,0,0,1,.31,0l2.8,1.72a.16.16,0,0,1,0,.27l-2.93,1.83A.29.29,0,0,1,113.9,106.78Z"/><path class="cls-120" d="M73.16,77.59l-1.31-.8h0l-3.21-2a.29.29,0,0,0-.31,0L65.4,76.65a.16.16,0,0,0,0,.27l1.72,1h0l2.8,1.72a.27.27,0,0,0,.3,0l2.94-1.83A.16.16,0,0,0,73.16,77.59Z"/><path class="cls-121" d="M81.44,77.27l-2.8-1.71a.17.17,0,0,1,0-.28l1.29-.81a.27.27,0,0,1,.3,0L83,76.19a.16.16,0,0,1,0,.27l-1.28.81A.29.29,0,0,1,81.44,77.27Z"/><path class="cls-122" d="M85.1,79.53l-2.79-1.72a.16.16,0,0,1,0-.28l1.28-.81a.29.29,0,0,1,.31,0l2.8,1.72a.16.16,0,0,1,0,.27l-1.29.82A.34.34,0,0,1,85.1,79.53Z"/><path class="cls-123" d="M88.77,81.78,86,80.06a.17.17,0,0,1,0-.28L87.25,79a.29.29,0,0,1,.31,0l2.8,1.72a.17.17,0,0,1,0,.28l-1.29.81A.27.27,0,0,1,88.77,81.78Z"/><path class="cls-124" d="M92.43,84l-2.8-1.72a.17.17,0,0,1,0-.28l1.29-.81a.32.32,0,0,1,.3,0L94,83a.15.15,0,0,1,0,.27L92.74,84A.29.29,0,0,1,92.43,84Z"/><path class="cls-125" d="M96.09,86.28,93.3,84.56a.15.15,0,0,1,0-.27l1.28-.81a.29.29,0,0,1,.31,0l2.8,1.72a.16.16,0,0,1,0,.27l-1.29.81A.29.29,0,0,1,96.09,86.28Z"/><path class="cls-126" d="M99.76,88.53,97,86.81a.16.16,0,0,1,0-.27l1.28-.81a.29.29,0,0,1,.31,0l2.8,1.72a.16.16,0,0,1,0,.27l-1.29.81A.27.27,0,0,1,99.76,88.53Z"/><path class="cls-127" d="M103.42,90.79l-2.8-1.72a.17.17,0,0,1,0-.28l1.29-.81a.27.27,0,0,1,.3,0L105,89.7a.15.15,0,0,1,0,.27l-1.28.82A.34.34,0,0,1,103.42,90.79Z"/><path class="cls-128" d="M107.08,93l-2.79-1.72a.16.16,0,0,1,0-.28l1.28-.81a.29.29,0,0,1,.31,0l2.8,1.72a.17.17,0,0,1,0,.28l-1.29.81A.29.29,0,0,1,107.08,93Z"/><path class="cls-129" d="M110.75,95.29,108,93.57a.17.17,0,0,1,0-.28l1.28-.81a.34.34,0,0,1,.31,0l2.8,1.73a.16.16,0,0,1,0,.27l-1.29.81A.27.27,0,0,1,110.75,95.29Z"/><path class="cls-130" d="M114.41,97.54l-2.8-1.72a.16.16,0,0,1,0-.27l1.29-.81a.27.27,0,0,1,.3,0l2.8,1.72a.15.15,0,0,1,0,.27l-1.28.81A.29.29,0,0,1,114.41,97.54Z"/><path class="cls-131" d="M118.07,99.79l-2.8-1.72a.16.16,0,0,1,0-.27l1.28-.81a.29.29,0,0,1,.31,0l2.8,1.72a.16.16,0,0,1,0,.27l-1.29.81A.29.29,0,0,1,118.07,99.79Z"/><path class="cls-132" d="M121.74,102.05l-2.8-1.72a.17.17,0,0,1,0-.28l1.28-.81a.29.29,0,0,1,.31,0l2.8,1.72a.16.16,0,0,1,0,.27l-1.29.82A.32.32,0,0,1,121.74,102.05Z"/><path class="cls-133" d="M79.35,73.87,78,73.07h0l-3.21-2a.29.29,0,0,0-.31,0l-1.28.81a.15.15,0,0,0,0,.27L75,73.24h0L77.75,75a.29.29,0,0,0,.31,0l1.29-.81A.16.16,0,0,0,79.35,73.87Z"/><path class="cls-134" d="M70.88,85l-2.8-1.71a.17.17,0,0,1,0-.28L71,81.22a.29.29,0,0,1,.31,0l2.8,1.72a.16.16,0,0,1,0,.27L71.19,85A.29.29,0,0,1,70.88,85Z"/><path class="cls-135" d="M74.54,87.3l-2.8-1.72a.17.17,0,0,1,0-.28l2.93-1.83a.29.29,0,0,1,.31,0l2.8,1.72a.16.16,0,0,1,0,.27L74.85,87.3A.34.34,0,0,1,74.54,87.3Z"/><path class="cls-136" d="M78.2,89.55l-2.79-1.72a.16.16,0,0,1,0-.28l2.93-1.83a.27.27,0,0,1,.3,0l2.8,1.72a.16.16,0,0,1,0,.28l-2.93,1.83A.29.29,0,0,1,78.2,89.55Z"/><path class="cls-137" d="M81.87,91.8l-2.8-1.72a.17.17,0,0,1,0-.28L82,88a.34.34,0,0,1,.31,0l2.8,1.72a.17.17,0,0,1,0,.28L82.18,91.8A.29.29,0,0,1,81.87,91.8Z"/><path class="cls-138" d="M85.53,94.05l-2.8-1.72a.16.16,0,0,1,0-.27l2.93-1.84a.31.31,0,0,1,.31,0L88.77,92a.16.16,0,0,1,0,.27l-2.93,1.83A.29.29,0,0,1,85.53,94.05Z"/><path class="cls-139" d="M89.19,96.3,86.4,94.58a.15.15,0,0,1,0-.27l2.93-1.83a.27.27,0,0,1,.3,0l2.8,1.72a.15.15,0,0,1,0,.27L89.5,96.3A.29.29,0,0,1,89.19,96.3Z"/><path class="cls-140" d="M92.86,98.56l-2.8-1.72a.17.17,0,0,1,0-.28L93,94.73a.29.29,0,0,1,.31,0l2.8,1.72a.16.16,0,0,1,0,.27l-2.93,1.84A.34.34,0,0,1,92.86,98.56Z"/><path class="cls-141" d="M96.52,100.81l-2.8-1.72a.17.17,0,0,1,0-.28L96.65,97A.29.29,0,0,1,97,97l2.8,1.72a.17.17,0,0,1,0,.28l-2.93,1.83A.29.29,0,0,1,96.52,100.81Z"/><path class="cls-142" d="M100.18,103.06l-2.79-1.72a.16.16,0,0,1,0-.28l2.93-1.83a.27.27,0,0,1,.3,0l2.8,1.72a.16.16,0,0,1,0,.28l-2.93,1.83A.29.29,0,0,1,100.18,103.06Z"/><path class="cls-143" d="M103.85,105.31l-2.8-1.72a.16.16,0,0,1,0-.27l2.93-1.84a.34.34,0,0,1,.31,0l2.8,1.73a.16.16,0,0,1,0,.27l-2.93,1.83A.29.29,0,0,1,103.85,105.31Z"/><path class="cls-144" d="M70.44,80.67,68.22,79.3h0l-3.22-2a.27.27,0,0,0-.3,0l-2.93,1.83a.16.16,0,0,0,0,.28l1.71,1h0l3.72,2.29a.34.34,0,0,0,.31,0l2.93-1.84A.16.16,0,0,0,70.44,80.67Z"/><path class="cls-145" d="M113.41,107.17l-1.3-.8h0l-4.21-2.57a.27.27,0,0,0-.3,0l-2.93,1.83a.15.15,0,0,0,0,.27l2.7,1.66h0l2.8,1.72a.34.34,0,0,0,.31,0l2.93-1.84A.16.16,0,0,0,113.41,107.17Z"/><path class="cls-146" d="M68.69,88.48l-2.8-1.72a.16.16,0,0,1,0-.27l2.93-1.83a.29.29,0,0,1,.31,0l2.8,1.72a.16.16,0,0,1,0,.27L69,88.48A.27.27,0,0,1,68.69,88.48Z"/><path class="cls-147" d="M72.35,90.74,69.55,89a.17.17,0,0,1,0-.28l2.93-1.83a.29.29,0,0,1,.31,0l2.8,1.72a.16.16,0,0,1,0,.27l-2.93,1.84A.34.34,0,0,1,72.35,90.74Z"/><path class="cls-148" d="M76,93l-2.79-1.72a.16.16,0,0,1,0-.28l2.93-1.83a.27.27,0,0,1,.3,0l2.8,1.72a.17.17,0,0,1,0,.28L76.32,93A.29.29,0,0,1,76,93Z"/><path class="cls-149" d="M79.68,95.24l-2.8-1.72a.17.17,0,0,1,0-.28l2.93-1.83a.29.29,0,0,1,.31,0l2.8,1.72a.17.17,0,0,1,0,.28L80,95.24A.27.27,0,0,1,79.68,95.24Z"/><path class="cls-150" d="M83.34,97.49l-2.8-1.72a.16.16,0,0,1,0-.27l2.93-1.84a.34.34,0,0,1,.31,0l2.8,1.73a.16.16,0,0,1,0,.27l-2.93,1.83A.29.29,0,0,1,83.34,97.49Z"/><path class="cls-151" d="M87,99.74,84.21,98a.15.15,0,0,1,0-.27l2.93-1.83a.27.27,0,0,1,.3,0l2.8,1.72a.16.16,0,0,1,0,.27l-2.93,1.83A.29.29,0,0,1,87,99.74Z"/><path class="cls-152" d="M90.67,102l-2.8-1.72a.17.17,0,0,1,0-.28l2.93-1.83a.27.27,0,0,1,.3,0l2.81,1.72a.16.16,0,0,1,0,.27L91,102A.32.32,0,0,1,90.67,102Z"/><path class="cls-153" d="M94.33,104.25l-2.8-1.72a.17.17,0,0,1,0-.28l2.93-1.83a.29.29,0,0,1,.31,0l2.8,1.72a.16.16,0,0,1,0,.27l-2.93,1.84A.29.29,0,0,1,94.33,104.25Z"/><path class="cls-154" d="M98,106.5l-2.8-1.72a.16.16,0,0,1,0-.28l2.93-1.83a.27.27,0,0,1,.3,0l2.8,1.72a.17.17,0,0,1,0,.28L98.3,106.5A.29.29,0,0,1,98,106.5Z"/><path class="cls-155" d="M68.23,84.12l-3.88-2.4h0l-3.22-2a.27.27,0,0,0-.3,0L57.9,81.58a.15.15,0,0,0,0,.27l1.71,1.05h0L65,86.23a.32.32,0,0,0,.3,0l2.94-1.84A.16.16,0,0,0,68.23,84.12Z"/><path class="cls-156" d="M109.54,109.59l-1.3-.8h0L102.12,105a.29.29,0,0,0-.31,0l-2.93,1.83a.17.17,0,0,0,0,.28L103.5,110h0l2.8,1.72a.29.29,0,0,0,.31,0l2.93-1.83A.16.16,0,0,0,109.54,109.59Z"/><path class="cls-157" d="M72.72,91.76l-1.3-.8h0l-3.21-2a.29.29,0,0,0-.31,0L65,90.82a.17.17,0,0,0,0,.28l1.72,1.05h0l2.79,1.72a.29.29,0,0,0,.31,0L72.72,92A.15.15,0,0,0,72.72,91.76Z"/><path class="cls-158" d="M56.85,86l-2.8-1.72a.17.17,0,0,1,0-.28L57,82.21a.34.34,0,0,1,.31,0l2.8,1.72a.17.17,0,0,1,0,.28L57.16,86A.29.29,0,0,1,56.85,86Z"/><path class="cls-159" d="M60.51,88.29l-2.79-1.72a.15.15,0,0,1,0-.27l2.93-1.84a.29.29,0,0,1,.3,0l2.8,1.72a.15.15,0,0,1,0,.27l-2.93,1.83A.29.29,0,0,1,60.51,88.29Z"/><path class="cls-160" d="M64.18,90.54l-2.8-1.72a.16.16,0,0,1,0-.27l2.93-1.83a.29.29,0,0,1,.31,0l2.8,1.72a.16.16,0,0,1,0,.27l-2.93,1.83A.29.29,0,0,1,64.18,90.54Z"/><path class="cls-161" d="M91.46,107.4l-2.8-1.72a.16.16,0,0,1,0-.27l2.93-1.83a.29.29,0,0,1,.31,0l2.8,1.72a.16.16,0,0,1,0,.27l-2.93,1.83A.29.29,0,0,1,91.46,107.4Z"/><path class="cls-162" d="M95.12,109.66l-2.8-1.72a.17.17,0,0,1,0-.28l2.94-1.83a.27.27,0,0,1,.3,0l2.8,1.72a.16.16,0,0,1,0,.27l-2.93,1.84A.34.34,0,0,1,95.12,109.66Z"/><path class="cls-163" d="M102.45,114.16l-2.8-1.72a.17.17,0,0,1,0-.28l2.93-1.83a.29.29,0,0,1,.31,0l2.8,1.72a.17.17,0,0,1,0,.28l-2.93,1.83A.29.29,0,0,1,102.45,114.16Z"/><path class="cls-164" d="M100.53,110.82l-2.8-1.72a.17.17,0,0,1,0-.28l1.19-.74a.29.29,0,0,1,.31,0l2.8,1.72a.17.17,0,0,1,0,.28l-1.2.74A.27.27,0,0,1,100.53,110.82Z"/><path class="cls-165" d="M98.78,111.91,96,110.19a.16.16,0,0,1,0-.28l1.19-.74a.27.27,0,0,1,.3,0l2.8,1.72a.15.15,0,0,1,0,.27l-1.19.75A.29.29,0,0,1,98.78,111.91Z"/><path class="cls-166" d="M70.44,94.16l2.93-1.83a.27.27,0,0,1,.3,0L91,103a.15.15,0,0,1,0,.27L88,105.08a.29.29,0,0,1-.31,0L70.44,94.44A.16.16,0,0,1,70.44,94.16Z"/><path class="cls-167" d="M134.08,133c0,2.31-3.3,4.18-7.36,4.18s-7.37-1.87-7.37-4.18,3.3-4.18,7.37-4.18S134.08,130.73,134.08,133Z"/><path class="cls-168" d="M116.56,114.13l2.79,17.35h0c.3,2.16,3.46,3.86,7.34,3.86,4.06,0,7.36-1.88,7.36-4.18l2.79-17Z"/><path class="cls-169" d="M117.22,114.13a2.34,2.34,0,0,0,.12.74l-.77-.74Z"/><ellipse class="cls-170" cx="126.72" cy="114.13" rx="10.15" ry="5.76"/><ellipse class="cls-171" cx="126.72" cy="114.13" rx="8.84" ry="4.45"/><ellipse class="cls-172" cx="126.72" cy="114.11" rx="9.46" ry="5.18"/><path class="cls-20" d="M136.18,114.11a3.2,3.2,0,0,1-.81,2c-1.41,1.74-4.58,3.2-8.66,3.2-5,0-8.67-2.22-9.34-4.45a2.35,2.35,0,0,1-.11-.73c0-2.45,3.89-5.18,9.45-5.18S136.18,111.66,136.18,114.11Z"/><path class="cls-173" d="M135.71,115.62a4.62,4.62,0,0,1-.34.47c-1.41,1.74-4.58,3.2-8.66,3.2-4.43,0-7.79-1.73-9-3.67,1.19-1.94,4.56-3.67,9-3.67S134.51,113.68,135.71,115.62Z"/><g class="cls-174"><path class="cls-175" d="M56.15,28.65,55.6,31.8a0,0,0,0,0,0,.05l2.49,1.55a0,0,0,0,0,0,0l.55-3.14s0,0,0-.07L56.2,28.63A0,0,0,0,0,56.15,28.65Z"/><g class="cls-3"><path class="cls-14" d="M59.62,31l-.06.35s0,.05,0,.07l8.17,5.09a.05.05,0,0,0,.07,0l.06-.34a.09.09,0,0,0,0-.1L59.7,30.92S59.62,30.92,59.62,31Z"/><path class="cls-14" d="M59.47,31.81l-.06.35a.06.06,0,0,0,0,.07l8.17,5.09a0,0,0,0,0,.07,0l.06-.34a.09.09,0,0,0,0-.1l-8.14-5.07A.06.06,0,0,0,59.47,31.81Z"/><path class="cls-14" d="M59.32,32.68l-.06.34a.07.07,0,0,0,0,.07l8.16,5.09a0,0,0,0,0,.07,0l.06-.33a.12.12,0,0,0,0-.11l-8.14-5.07A.07.07,0,0,0,59.32,32.68Z"/><path class="cls-14" d="M59.18,33.54l-.06.35s0,0,0,.07l5.39,3.36a0,0,0,0,0,.07,0l.06-.34a.1.1,0,0,0,0-.1l-5.37-3.34S59.18,33.51,59.18,33.54Z"/></g></g><path class="cls-176" d="M55,67.1,25.14,48.72a1.37,1.37,0,0,0-1.46,0L1.93,62.08a.75.75,0,0,0-.37.66h0v.94h0a.75.75,0,0,0,.37.66L31.76,82.71a1.39,1.39,0,0,0,1.47,0L55,69.35a.76.76,0,0,0,.36-.65h0v-.86h0A.74.74,0,0,0,55,67.1Z"/><path class="cls-19" d="M31.76,81.77,1.93,63.4a.78.78,0,0,1,0-1.32L23.68,48.72a1.37,1.37,0,0,1,1.46,0L55,67.1a.76.76,0,0,1,0,1.3L33.23,81.77A1.44,1.44,0,0,1,31.76,81.77Z"/><polygon class="cls-177" points="17.21 72.17 39.78 58.31 54.62 67.46 32.05 81.32 17.21 72.17"/><path class="cls-178" d="M54.61,67.46v-.61c-8-9-14.83-9.34-14.83-9.34L17.21,71.37v.8l.08,0,14.76,9.1L54.61,67.46"/><path class="cls-179" d="M39.78,57.51s-2.91-5.32-14.84-8.81L2.37,62.56V63l.06,0,14.78,9.11L39.78,58.31h0Z"/><path class="cls-180" d="M17.21,72.17v-.8S14.3,66.05,2.37,62.56V63Z"/><path class="cls-179" d="M54.61,67.46v-.61c-8-9-14.83-9.34-14.83-9.34L17.21,71.37v.8l.08,0,14.76,9.1L54.61,67.46"/><polygon class="cls-20" points="54.62 66.85 32.05 80.71 32.05 81.32 54.62 67.46 54.62 66.85"/><path class="cls-180" d="M17.21,72.17v-.8s6.84.36,14.84,9.34v.61Z"/><path class="cls-179" d="M39.77,57.51,17.21,71.37a24.38,24.38,0,0,0-10-13.73L29.81,43.78A24.38,24.38,0,0,1,39.77,57.51Z"/><path class="cls-20" d="M38.18,63l.09-1.1H36.68l6-3.66a20.8,20.8,0,0,1,2,.81Z"/><path class="cls-167" d="M57.42,73.46,36.29,86.57l-1.83-1.14L55.54,72.38l3.46-1a.06.06,0,0,1,.07.1Z"/><path class="cls-181" d="M55.53,70.2l3-.78a.12.12,0,0,1,.11.19l-2,2.35Z"/><path class="cls-167" d="M58.64,69.61l-.75.87a.63.63,0,0,0,0-.44.58.58,0,0,0-.11-.15h0a.51.51,0,0,0-.33-.17l1.12-.29A.12.12,0,0,1,58.64,69.61Z"/><path class="cls-182" d="M34.87,83.1l.3.52L35.93,85l20.49-12.8h0l.12-.08a.71.71,0,0,0,.23-.34,1.25,1.25,0,0,0-.08-.92,1.48,1.48,0,0,0-.21-.32h0a.91.91,0,0,0-.78-.33.55.55,0,0,0-.22.06.05.05,0,0,1,0,0l0,0h0v0Z"/><path class="cls-183" d="M39.18,81.74a1.06,1.06,0,0,0-1-.65.57.57,0,0,0-.22.07l0,0,0,0h0l-3,1.89L35.81,85l3.09-1.94h0L39,83a.86.86,0,0,0,.23-.35A1.25,1.25,0,0,0,39.18,81.74Z"/><path class="cls-184" d="M34.87,83.1l.3.52.71-.23L56.48,70.5h0a.91.91,0,0,0-.78-.33.55.55,0,0,0-.22.06.05.05,0,0,1,0,0l0,0h0v0Z"/><path class="cls-185" d="M34.6,84.45a1,1,0,0,0,1.21.58h0a.36.36,0,0,0,.12-.08.71.71,0,0,0,.23-.34,1.16,1.16,0,0,0-.08-.92,1,1,0,0,0-1-.65.6.6,0,0,0-.22.06l0,0-.05,0,0,0A1,1,0,0,0,34.6,84.45Z"/><path class="cls-14" d="M58.13,17.65l-.14.87,5.33,7.17,6.46.15.16-1a.47.47,0,0,0-.21-.49L58.61,17.39A.34.34,0,0,0,58.13,17.65Z"/><path class="cls-14" d="M63.19,26.49l-5.33-7.18L56.8,26a.48.48,0,0,0,.21.49l11.06,6.88a.39.39,0,0,0,.56-.29l1-6.43Z"/><path class="cls-186" d="M132.65,26.32,101.72,6.93a.73.73,0,0,0-.62-.09h0l-.85.15h0a.79.79,0,0,0-.75.65L90.1,64.11a.78.78,0,0,0,.36.78l30.92,19.39a.82.82,0,0,0,.52.11h0l1.08-.19h0a.78.78,0,0,0,.59-.63L133,27.1A.78.78,0,0,0,132.65,26.32Z"/><path class="cls-187" d="M121.38,84.28,90.46,64.89a.78.78,0,0,1-.36-.78L99.49,7.64a.77.77,0,0,1,1.18-.53L131.59,26.5a.78.78,0,0,1,.36.78l-9.39,56.48A.77.77,0,0,1,121.38,84.28Z"/><g class="cls-188"><path class="cls-189" d="M113.18,20.85l-.12.67a.13.13,0,0,0,.07.13l15.71,9.79a.09.09,0,0,0,.13-.06l.12-.64a.2.2,0,0,0-.09-.2l-15.66-9.76A.12.12,0,0,0,113.18,20.85Z"/><path class="cls-189" d="M112.9,22.51l-.12.67a.14.14,0,0,0,.06.13l15.72,9.79a.09.09,0,0,0,.13-.06l.12-.64a.2.2,0,0,0-.09-.2l-15.66-9.75A.11.11,0,0,0,112.9,22.51Z"/><path class="cls-189" d="M112.62,24.17l-.12.67a.12.12,0,0,0,.06.13l15.71,9.79a.1.1,0,0,0,.14-.06l.11-.64a.18.18,0,0,0-.09-.2l-15.65-9.75A.11.11,0,0,0,112.62,24.17Z"/><path class="cls-189" d="M112.34,25.83l-.12.67a.13.13,0,0,0,.06.14l10.38,6.46a.09.09,0,0,0,.13-.06l.12-.64a.2.2,0,0,0-.09-.2l-10.33-6.43A.1.1,0,0,0,112.34,25.83Z"/></g><g class="cls-190"><path class="cls-19" d="M98.7,27l-.61,3.47s0,0,0,0l2.75,1.71a0,0,0,0,0,0,0l.61-3.46a.08.08,0,0,0,0-.07l-2.73-1.69A0,0,0,0,0,98.7,27Z"/><path class="cls-189" d="M102.51,29.48l-.06.38a.07.07,0,0,0,0,.08l9,5.6a.06.06,0,0,0,.08,0l.06-.37a.11.11,0,0,0-.05-.12l-9-5.58A.07.07,0,0,0,102.51,29.48Z"/><path class="cls-189" d="M102.35,30.43l-.06.38a.07.07,0,0,0,0,.08l9,5.6a0,0,0,0,0,.07,0l.07-.37a.11.11,0,0,0,0-.12l-9-5.58A.06.06,0,0,0,102.35,30.43Z"/><path class="cls-189" d="M102.19,31.38l-.07.38a.09.09,0,0,0,0,.08l9,5.6s.08,0,.08,0l.07-.37a.09.09,0,0,0,0-.11l-9-5.59A.06.06,0,0,0,102.19,31.38Z"/><path class="cls-189" d="M102,32.33l-.07.38a.09.09,0,0,0,0,.08l5.94,3.7a.06.06,0,0,0,.08,0l.06-.37a.11.11,0,0,0,0-.12l-5.91-3.68A.06.06,0,0,0,102,32.33Z"/></g><g class="cls-3"><path class="cls-189" d="M119.21,39.63l-.06.35s0,.05,0,.07l8.17,5.09s.07,0,.07,0l.06-.34a.09.09,0,0,0,0-.1l-8.14-5.07A.06.06,0,0,0,119.21,39.63Z"/><path class="cls-189" d="M119.06,40.5l-.06.34a.08.08,0,0,0,0,.07L127.2,46a0,0,0,0,0,.07,0l.06-.33a.12.12,0,0,0,0-.11l-8.14-5.07A.06.06,0,0,0,119.06,40.5Z"/><path class="cls-189" d="M118.92,41.36l-.06.35s0,0,0,.07l8.17,5.09a.05.05,0,0,0,.07,0l.06-.34a.1.1,0,0,0,0-.1L119,41.33S118.92,41.33,118.92,41.36Z"/><path class="cls-189" d="M118.77,42.22l-.06.35a.06.06,0,0,0,0,.07l5.4,3.36s.06,0,.07,0l.06-.33a.13.13,0,0,0,0-.11l-5.37-3.34A.06.06,0,0,0,118.77,42.22Z"/></g><g class="cls-3"><path class="cls-189" d="M111.8,51.84l-.06.35a.11.11,0,0,0,0,.07l3.86,2.4a.07.07,0,0,0,.07,0l.06-.34a.09.09,0,0,0-.05-.1l-3.83-2.38A.06.06,0,0,0,111.8,51.84Z"/><path class="cls-189" d="M111.66,52.7l-.07.35a.07.07,0,0,0,0,.07l3.85,2.4s.07,0,.07,0l.06-.34a.1.1,0,0,0,0-.1l-3.83-2.38S111.66,52.67,111.66,52.7Z"/></g><g class="cls-190"><path class="cls-189" d="M101.66,34.49l-.07.38a.06.06,0,0,0,0,.07l9,5.61a.06.06,0,0,0,.08,0l.06-.37a.11.11,0,0,0-.05-.11l-9-5.58S101.66,34.45,101.66,34.49Z"/><path class="cls-189" d="M101.5,35.44l-.07.38a.06.06,0,0,0,0,.07l9,5.61a.06.06,0,0,0,.08,0l.06-.37a.11.11,0,0,0,0-.11l-9-5.58S101.5,35.4,101.5,35.44Z"/><path class="cls-189" d="M101.33,36.39l-.06.38a.08.08,0,0,0,0,.08l9,5.6a.06.06,0,0,0,.08,0l.06-.37a.11.11,0,0,0,0-.12l-9-5.58A.07.07,0,0,0,101.33,36.39Z"/><path class="cls-189" d="M101.17,37.34l-.06.38a.07.07,0,0,0,0,.08l5.94,3.7a.06.06,0,0,0,.08,0l.07-.37a.14.14,0,0,0-.06-.11l-5.91-3.68A.06.06,0,0,0,101.17,37.34Z"/></g><g class="cls-190"><path class="cls-189" d="M100.77,39.64l-.07.38a.08.08,0,0,0,0,.08l9,5.6a.06.06,0,0,0,.08,0l.06-.37a.11.11,0,0,0-.05-.12l-9-5.58S100.77,39.6,100.77,39.64Z"/><path class="cls-189" d="M100.6,40.59l-.06.38a.07.07,0,0,0,0,.08l9,5.6a0,0,0,0,0,.07,0l.07-.37a.11.11,0,0,0,0-.12l-9-5.58A.06.06,0,0,0,100.6,40.59Z"/><path class="cls-189" d="M100.44,41.54l-.07.38a.09.09,0,0,0,0,.08l9,5.6a0,0,0,0,0,.07,0l.07-.37a.09.09,0,0,0,0-.11l-9-5.59A.06.06,0,0,0,100.44,41.54Z"/><path class="cls-189" d="M100.28,42.49l-.07.38a.09.09,0,0,0,0,.08l5.94,3.7a.06.06,0,0,0,.08,0l.06-.37a.11.11,0,0,0,0-.12l-5.91-3.68A.06.06,0,0,0,100.28,42.49Z"/></g><g class="cls-190"><path class="cls-189" d="M99.86,44.84l-.06.38a.06.06,0,0,0,0,.08l9,5.6a0,0,0,0,0,.07,0l.07-.37a.1.1,0,0,0,0-.11l-9-5.58S99.87,44.81,99.86,44.84Z"/><path class="cls-189" d="M99.7,45.79l-.07.38s0,.07,0,.08l9,5.61s.08,0,.08,0l.07-.37a.1.1,0,0,0,0-.11l-9-5.58A.07.07,0,0,0,99.7,45.79Z"/><path class="cls-189" d="M99.54,46.74l-.07.39a.07.07,0,0,0,0,.07l9,5.61s.08,0,.08,0l.07-.37a.14.14,0,0,0-.06-.11l-9-5.58A.07.07,0,0,0,99.54,46.74Z"/><path class="cls-189" d="M99.38,47.7l-.07.38a.07.07,0,0,0,0,.07l5.94,3.71s.07,0,.07,0l.07-.37a.1.1,0,0,0-.05-.11l-5.91-3.68A.06.06,0,0,0,99.38,47.7Z"/></g><path class="cls-191" d="M110.7,56.07l-.07.38a.09.09,0,0,0,0,.08l11.47,7.16a.06.06,0,0,0,.08,0l.06-.37a.09.09,0,0,0,0-.11L110.79,56S110.7,56,110.7,56.07Z"/><path class="cls-191" d="M110.54,57l-.07.38a.08.08,0,0,0,0,.08L122,64.64a0,0,0,0,0,.07,0l.07-.37a.09.09,0,0,0-.05-.11L110.63,57S110.54,57,110.54,57Z"/><path class="cls-191" d="M110.38,58l-.07.38a.08.08,0,0,0,0,.08l11.47,7.16s.08,0,.08,0l.07-.37a.1.1,0,0,0,0-.11l-11.44-7.15S110.38,57.94,110.38,58Z"/><path class="cls-191" d="M110.21,58.92l-.06.38a.06.06,0,0,0,0,.08l8.42,5.26a.06.06,0,0,0,.08,0l.06-.37a.09.09,0,0,0,0-.11l-8.39-5.24S110.22,58.89,110.21,58.92Z"/><path class="cls-191" d="M109.45,63.68l-.07.38a.09.09,0,0,0,0,.08l11.47,7.16a.06.06,0,0,0,.08,0l.06-.37a.11.11,0,0,0,0-.12l-11.44-7.14A.06.06,0,0,0,109.45,63.68Z"/><path class="cls-191" d="M109.29,64.63l-.07.38a.09.09,0,0,0,0,.08l11.47,7.16a.06.06,0,0,0,.08,0l.06-.37a.11.11,0,0,0-.05-.12l-11.44-7.14A.06.06,0,0,0,109.29,64.63Z"/><path class="cls-191" d="M109.13,65.58l-.07.38a.07.07,0,0,0,0,.08l11.47,7.16a0,0,0,0,0,.07,0l.07-.37a.11.11,0,0,0,0-.12l-11.44-7.14S109.13,65.54,109.13,65.58Z"/><path class="cls-191" d="M109,66.53l-.07.38a.08.08,0,0,0,0,.08l8.42,5.26a.06.06,0,0,0,.08,0l.06-.37a.11.11,0,0,0,0-.12l-8.38-5.24S109,66.49,109,66.53Z"/><g class="cls-190"><path class="cls-189" d="M99,49.94l-.07.38a.08.08,0,0,0,0,.08l9,5.6s.08,0,.08,0l.07-.37a.12.12,0,0,0,0-.11l-9-5.58S99,49.91,99,49.94Z"/><path class="cls-189" d="M98.82,50.89l-.07.38s0,.07,0,.08l9,5.61a.07.07,0,0,0,.08,0l.07-.37a.13.13,0,0,0-.06-.11l-9-5.58A.07.07,0,0,0,98.82,50.89Z"/><path class="cls-189" d="M98.66,51.85l-.07.38a.06.06,0,0,0,0,.07l9,5.61a.06.06,0,0,0,.08,0l.06-.37a.11.11,0,0,0-.05-.11l-9-5.58S98.66,51.81,98.66,51.85Z"/><path class="cls-189" d="M98.5,52.8l-.07.38a.06.06,0,0,0,0,.07L104.4,57s.08,0,.08,0l.07-.37a.1.1,0,0,0,0-.11l-5.91-3.68S98.5,52.76,98.5,52.8Z"/></g><path class="cls-2" d="M101.6,10.51,99.45,22.74a.18.18,0,0,0,.08.17l9.7,6a.12.12,0,0,0,.17-.08l2.15-12.2a.24.24,0,0,0-.12-.25l-9.63-6A.15.15,0,0,0,101.6,10.51Z"/><path class="cls-189" d="M100,24.13l-.21,1.17a.13.13,0,0,0,.07.13l7.71,4.79a.1.1,0,0,0,.14,0l.2-1.15a.2.2,0,0,0-.09-.2l-7.66-4.75A.11.11,0,0,0,100,24.13Z"/><path class="cls-14" d="M104.4,16.38a3.85,3.85,0,0,0,1.24,3.23c.9.57,1.86-.31,2-1.17a2.88,2.88,0,0,0-1.36-2.6C105.4,15.27,104.55,15.51,104.4,16.38Z"/><path class="cls-14" d="M108.59,24.53c-1.38.93-3.61-.22-4.24-.57l-.08-.05-.08-.05,0,0c-2.76-1.94-2.79-3.62-2.79-3.69a2.12,2.12,0,0,1,1.06-.67,3.75,3.75,0,0,1,3,.65A7.56,7.56,0,0,1,108.59,24.53Z"/><polygon class="cls-15" points="113.68 33.45 107.13 72.86 106.79 72.65 113.34 33.23 113.68 33.45"/><path class="cls-192" d="M106.66,61.3,105,70.94a.09.09,0,0,1-.14,0L92.41,63.32a.13.13,0,0,1-.06-.14l.19-1.1,6.21-3,1.46,4.68Z"/><path class="cls-193" d="M106.76,60.71l-.1.59L105,70.94a.09.09,0,0,1-.14,0L92.41,63.32a.13.13,0,0,1-.06-.14l.19-1.1,1.62-9.15a.11.11,0,0,1,.16-.07l12.34,7.64A.19.19,0,0,1,106.76,60.71Z"/><path class="cls-194" d="M97.8,32.12l-.61,3.46a0,0,0,0,0,0,.05L100,37.34a0,0,0,0,0,.05,0l.6-3.46a.05.05,0,0,0,0-.07l-2.73-1.7A0,0,0,0,0,97.8,32.12Z"/><path class="cls-194" d="M96.89,37.28l-.61,3.47a.05.05,0,0,0,0,0l2.75,1.7s0,0,0,0L99.71,39a.07.07,0,0,0,0-.08L97,37.26A0,0,0,0,0,96.89,37.28Z"/><path class="cls-194" d="M96,42.45l-.61,3.47s0,0,0,0l2.75,1.7s0,0,0,0l.61-3.46s0,0,0-.07l-2.73-1.69A0,0,0,0,0,96,42.45Z"/><path class="cls-194" d="M95.09,47.62l-.61,3.46a.08.08,0,0,0,0,.05l2.75,1.71s0,0,0,0l.61-3.46a.08.08,0,0,0,0-.07l-2.73-1.7S95.09,47.6,95.09,47.62Z"/><path class="cls-195" d="M118.3,40.32c-.14,1.72-1.26,2.78-2.51,2.38s-2.15-2.13-2-3.84,1.25-2.78,2.5-2.37S118.43,38.61,118.3,40.32Z"/><path class="cls-195" d="M117.06,49.45c-.13,1.72-1.25,2.78-2.5,2.37s-2.15-2.12-2-3.83,1.26-2.78,2.51-2.38S117.2,47.73,117.06,49.45Z"/><g class="cls-3"><path class="cls-189" d="M119.28,56.35l-.06.34a.08.08,0,0,0,0,.07l3.86,2.4s.06,0,.07,0l.06-.33a.11.11,0,0,0,0-.11l-3.83-2.38A.06.06,0,0,0,119.28,56.35Z"/><path class="cls-189" d="M119.13,57.21l-.06.35a.08.08,0,0,0,0,.07L123,60s.07,0,.07,0l.06-.34a.09.09,0,0,0,0-.1l-3.82-2.38A.07.07,0,0,0,119.13,57.21Z"/></g><path class="cls-195" d="M124.54,54c-.13,1.71-1.25,2.78-2.5,2.37s-2.15-2.12-2-3.84,1.26-2.77,2.51-2.37S124.68,52.24,124.54,54Z"/><path class="cls-196" d="M84.69,36.57c-.27,3.4-2.49,5.51-5,4.7s-4.26-4.21-4-7.61,2.49-5.51,5-4.7S85,33.17,84.69,36.57Z"/><path class="cls-197" d="M79.33,29.32a3.08,3.08,0,0,0-1.55-.12h0l-.83.16h0c-1.9.16-3.43,2.08-3.65,4.86-.27,3.4,1.52,6.81,4,7.61a3.14,3.14,0,0,0,1.68.1h0l2.42-.43-1.54.27c1.82-.26,3.27-2.14,3.48-4.84C83.6,33.53,81.81,30.12,79.33,29.32Z"/><path class="cls-2" d="M82.26,37.12c-.27,3.4-2.49,5.51-5,4.7s-4.26-4.21-4-7.61,2.49-5.51,5-4.7S82.53,33.72,82.26,37.12Z"/><polygon class="cls-198" points="74.65 35.16 75.46 34.6 76.7 36.67 80.42 34.12 80.91 34.93 76.41 38.08 74.65 35.16"/><path class="cls-19" d="M64,129,36.11,111.82a1.28,1.28,0,0,0-1.36,0l-20.3,12.46c-.24.15-.35.41-.34,1.21v.71a.71.71,0,0,0,.33.7L42.29,144a1.3,1.3,0,0,0,1.37,0L64,131.57a.69.69,0,0,0,.33-.65v-1.34h0A.7.7,0,0,0,64,129Z"/><path class="cls-179" d="M42.29,142.66,14.45,125.51a.72.72,0,0,1,0-1.23l20.3-12.46a1.28,1.28,0,0,1,1.36,0L64,129a.72.72,0,0,1,0,1.22L43.66,142.66A1.3,1.3,0,0,1,42.29,142.66Z"/><path class="cls-199" d="M37.7,121.25a2.06,2.06,0,0,1,0,1,3.14,3.14,0,0,1-.75,1.18,5.9,5.9,0,0,1-1.21,1,9,9,0,0,0-1,.71A6.43,6.43,0,0,0,34,126v.2a3.18,3.18,0,0,1-1,.79,2.5,2.5,0,0,1-1.84.1,1.33,1.33,0,0,1-.87-1.07c0-.14,0-.68,0-.68"/><path class="cls-200" d="M33.2,122a9.72,9.72,0,0,0,2.2-1c1.1-.78,1.9-.58,2.17-.12s.39,2-1.94,3.41A4.32,4.32,0,0,0,34,125.68a3,3,0,0,1-1.1,1,2.31,2.31,0,0,1-1.22.21c-1.6-.13-1.93-1.75-1.15-3A6.11,6.11,0,0,1,33.2,122Z"/><path class="cls-199" d="M50.66,129.65v.06a1.12,1.12,0,0,1-.24.7,5.67,5.67,0,0,1-2.83,1.29h-.06c-1,.15-2.08.21-2.55.26a7,7,0,0,0-1,.17v.11a8.91,8.91,0,0,1-1.34.22h0a2.4,2.4,0,0,1-1.46-.32,1.39,1.39,0,0,1-.4-.68v-.41l1.27-.09h0l.63-.05.58,0,.54,0Z"/><path class="cls-200" d="M45.12,128.3a7.6,7.6,0,0,0,2.12.46,9.1,9.1,0,0,1,3.08.29.69.69,0,0,1,.35.56c0,1.19-2.83,1.91-4.52,2a25.38,25.38,0,0,0-2.58.24,4,4,0,0,1-2.15-.05,1.87,1.87,0,0,1-.39-2.62C41.56,128.36,45.12,128.3,45.12,128.3Z"/><path class="cls-201" d="M41.44,127.2s-.06,1.34-.08,1.57-.14.45-.1.67.85.67,2,.55a3.38,3.38,0,0,0,2.19-1.06c.2-.34-.11-.44-.16-.58s0-2.2-.15-1.53"/><path class="cls-201" d="M30.78,122.7l-.06,1.2a.81.81,0,0,0-.11.52c.08.33,1,1,2.27.29a2,2,0,0,0,1.27-1.92c.08-.51-.21,0-.21-.43"/><path class="cls-167" d="M49.55,103.54c-.45,4-1.89,10.84-2.39,14.27S46,127.69,46,127.69s-.51.81-2.36,1.06a2.68,2.68,0,0,1-2.59-.86s-.86-9.54-.73-11.54.71-5.68.62-7.64a40.09,40.09,0,0,0-.74-7.72,8,8,0,0,1-.3.84c-1.06,2.39-3.05,7.51-3.61,9.45s-1.66,11.59-1.66,11.59a1.65,1.65,0,0,1-.56.58,5.09,5.09,0,0,1-1.44.65c-1.66.46-2.24-.49-2.24-.49-.2-1.16-.3-12.51.26-14.68A50.78,50.78,0,0,0,32,101.27a76.62,76.62,0,0,0,.12-9.45,8.06,8.06,0,0,1,.21-2.69,7.1,7.1,0,0,1,.77-2S49,88,49.55,90.42a18.48,18.48,0,0,1,.33,2.35A60.33,60.33,0,0,1,49.55,103.54Z"/><path class="cls-202" d="M49.88,92.77A16.85,16.85,0,0,1,36.81,92a23.27,23.27,0,0,1-4.52-2.91,7.1,7.1,0,0,1,.77-2S49,88,49.55,90.42A18.48,18.48,0,0,1,49.88,92.77Z"/><path class="cls-201" d="M44.35,58.42a4.08,4.08,0,0,1-1.12.47l-.07,0-.09,0-.3.11a.39.39,0,0,0-.23.22,15,15,0,0,0,0,2.61l-.71-.24-4.3-1.48s.06-1.16,0-2.22-.15-6.73,1.26-7.7,5.47-.38,5.93.17c0,0,.13.86.41,2.47S45.15,57.89,44.35,58.42Z"/><path class="cls-203" d="M42.08,59.46a2.37,2.37,0,0,1,.69-.41.39.39,0,0,0-.23.22,15,15,0,0,0,0,2.61l-.71-.24C41.78,60.93,41.72,59.77,42.08,59.46Z"/><path class="cls-204" d="M43.88,47.3c-.45.52-2.05.65-2.05.65a10.94,10.94,0,0,0-3.18.36,4.53,4.53,0,0,0-3.06,4.8,8.34,8.34,0,0,0,1.25,3.32c.23.54.25,1.49.42,1.8a7.72,7.72,0,0,0,3.38.6,4.11,4.11,0,0,0,1.13-1.73c.06-.46,0-1.59.09-2s.64-.92.92-.87.46.56.58,1.06.36.5.48.38A16.7,16.7,0,0,0,44,53.94a3.83,3.83,0,0,0,.19-1.61c0-1.14.31-.83.84-1.48C46.57,49.26,44.75,46.3,43.88,47.3Z"/><path class="cls-14" d="M37.06,60l.49-.52s4.18,1,5.21,2.6"/><path class="cls-205" d="M48.81,79a22.78,22.78,0,0,0,.56,5.78,45.12,45.12,0,0,1,.68,7.71,7.89,7.89,0,0,1-1.37.41,18.6,18.6,0,0,1-7,.14,17.3,17.3,0,0,1-5-1.61,30.55,30.55,0,0,1-.1-3.47,27.79,27.79,0,0,0-.34,3.24,22.34,22.34,0,0,1-4.18-2.8A44.68,44.68,0,0,1,33.52,81c.82-2.78.75-4.87-1.08-8.06-2.27-3.94-3.29-9.4-.9-11.72a3.91,3.91,0,0,1,4.49-1l.56-.6a26.17,26.17,0,0,1,7.15,2.84v.61l.22.1c2.72,1.27,4.89,2.68,6,4.63s3.37,6.39,3.88,10.6C54,80.4,50.56,81.73,48.81,79Z"/><path class="cls-206" d="M48.82,80.51c-3.12-5.3-3.06-7.69-3.06-7.69s.94,2.37,1.7,3.84c.36.71,1.35,2.34,1.35,2.34A13.47,13.47,0,0,0,48.82,80.51Z"/><path class="cls-207" d="M40.16,101a7.85,7.85,0,0,1-.32.84c-1.05,2.39-3.05,7.51-3.6,9.45s-1.66,11.6-1.66,11.6a1.72,1.72,0,0,1-.56.57c.22-2.68.86-9.91,1.2-11.38a17.36,17.36,0,0,1,1.13-3.71c.53-1.22,3.08-7.13,1.62-10a15.83,15.83,0,0,1-1.51-4.61,9.43,9.43,0,0,0,2.76,4.31Z"/><path class="cls-208" d="M43.74,62.83v.29s-3.22-1.39-5-2A34.85,34.85,0,0,1,43.74,62.83Z"/></g></g></svg>